<?xml version="1.0" standalone="no"?>
<!DOCTYPE svg PUBLIC "-//W3C//DTD SVG 1.1//EN" "http://www.w3.org/Graphics/SVG/1.1/DTD/svg11.dtd" >
<svg xmlns="http://www.w3.org/2000/svg" xmlns:xlink="http://www.w3.org/1999/xlink" version="1.1">
<metadata>
Created by FontForge 20170731 at Wed May  4 09:59:57 2011
 By ,,,
Copyright (c) 2011 by David Kerkhoff. All rights reserved.
</metadata>
<defs>
<font id="NeuesBauen" horiz-adv-x="448" >
  <font-face 
    font-family="Neues Bauen"
    font-weight="400"
    font-stretch="normal"
    units-per-em="1000"
    panose-1="2 15 6 3 6 6 7 6 8 0"
    ascent="800"
    descent="-200"
    x-height="489"
    cap-height="696"
    bbox="-107 -227 851 944"
    underline-thickness="50"
    underline-position="-150"
    unicode-range="U+0020-FB02"
  />
<missing-glyph horiz-adv-x="262" 
 />
    <glyph glyph-name=".notdef" horiz-adv-x="262" 
 />
    <glyph glyph-name=".null" horiz-adv-x="0" 
 />
    <glyph glyph-name="nonmarkingreturn" horiz-adv-x="333" 
 />
    <glyph glyph-name="space" unicode=" " horiz-adv-x="400" 
 />
    <glyph glyph-name="exclam" unicode="!" horiz-adv-x="154" 
d="M41 209v490h73v-490h-73zM40 1v98h73v-98h-73z" />
    <glyph glyph-name="quotedbl" unicode="&#x22;" horiz-adv-x="287" 
d="M247 703v-97q0 -48 -18 -72.5t-43 -24.5h-5q-1 1 -4 1h-3v35l6 -2q1 -1 6 -1q15 0 25.5 15t10.5 44v4h-48v98h73zM113 703v-96q0 -48 -17.5 -72.5t-43.5 -24.5h-9q-2 0 -2 1v35q3 -1 5 -2t6 -1q15 0 25.5 14.5t10.5 43.5v5h-48v97h73z" />
    <glyph glyph-name="numbersign" unicode="#" horiz-adv-x="375" 
d="M70 602v102h54v-102h126v97h54v-97h41v-113h-41v-279h41v-113h-41v-103h-54v103h-126v-97h-54v97h-40v113h40v279h-40v113h40zM124 210h126v279h-126v-279z" />
    <glyph glyph-name="dollar" unicode="$" horiz-adv-x="491" 
d="M300 701v-7l34 -12v-101l-34 15v-103h150q0 -28 0.5 -52t0.5 -45q0 -65 -1.5 -103.5t-4 -60t-5.5 -31.5t-5 -18q-17 -63 -53.5 -106t-81.5 -63v-17h-73v3q-18 1 -35.5 5t-33.5 12l-8 5v108q35 -28 77 -33v298h-187v35q1 1 1.5 6.5t1.5 11.5l3 24q7 44 24 82t41 67.5
t54 48.5t62 25v6h73zM300 395v-277q46 32 68 97q1 4 3 10t3.5 19t2.5 36t1 61q0 11 -0.5 24.5t-0.5 29.5h-77zM137 493h90v100q-29 -11 -52.5 -36.5t-37.5 -63.5z" />
    <glyph glyph-name="percent" unicode="%" horiz-adv-x="392" 
d="M141 -1h-51l159 702h49zM206 197q4 35 25 58t48 23q31 0 52 -28t21 -70v-86q0 -20 -6.5 -37.5t-17 -30.5t-24 -20t-26.5 -7q-27 0 -46 21.5t-26 56.5v120zM40 620q5 35 25 57t46 22q31 0 52 -28t21 -68v-85q0 -20 -6.5 -37t-16.5 -29.5t-23.5 -19.5t-26.5 -7
q-27 0 -46 21t-25 55v119zM235 78q6 -17 17.5 -28.5t25.5 -11.5t26.5 11.5t17.5 28.5v117q-5 16 -14.5 29.5t-24.5 13.5h-12q-1 -1 -2.5 -1t-2.5 -1q-11 -3 -19 -15t-12 -26v-117zM69 502q6 -17 17 -28t25 -11q13 0 25.5 11.5t17.5 28.5v114q-4 15 -13.5 29t-24.5 14h-12
q-1 -1 -3 -1t-2 -1q-11 -3 -19 -15t-11 -26v-115z" />
    <glyph glyph-name="ampersand" unicode="&#x26;" horiz-adv-x="472" 
d="M404 202v-2q0 -33 -15 -68t-39 -64.5t-53 -48.5t-57 -19h-33q-28 0 -57.5 18t-54 48.5t-40 71t-15.5 84.5v44q0 39 16 79.5t36 70.5q-16 32 -16 87q0 40 11.5 76t31.5 62.5t46.5 42t57.5 15.5q30 0 56.5 -15.5t47 -41.5t32 -61.5t11.5 -75.5v-6q0 -3 -1 -3h-72
q0 45 -21 75t-52 30t-52.5 -28t-21.5 -70v-7q0 -6 1.5 -15t3.5 -10l68 18v-98l-36 -9q-17 -7 -30.5 -21t-23 -32.5t-14.5 -40.5t-5 -44q0 -30 8.5 -56.5t23.5 -46.5t34.5 -31.5t42.5 -11.5q36 0 65.5 28t39.5 76h76zM432 350v-90h-208v90h208z" />
    <glyph glyph-name="quotesingle" unicode="'" horiz-adv-x="153" 
d="M113 703v-96q0 -48 -17.5 -72.5t-43.5 -24.5h-9q-2 0 -2 1l-1 35h1q3 -1 5 -2t6 -1q15 0 25.5 14.5t10.5 43.5v5h-48v97h73z" />
    <glyph glyph-name="parenleft" unicode="(" horiz-adv-x="238" 
d="M30 351q0 73 11.5 136.5t34 110.5t55.5 74t77 27v-122q-29 0 -49 -17.5t-32 -47.5t-17 -71.5t-5 -89.5q0 -50 5 -92t17 -72.5t31.5 -47.5t48.5 -17v-121q-39 0 -71.5 25.5t-56 72t-36.5 110.5t-13 142z" />
    <glyph glyph-name="parenright" unicode=")" horiz-adv-x="238" 
d="M208 351q0 -78 -13.5 -142t-37 -110.5t-56 -72t-70.5 -25.5v121q29 0 48.5 17t31.5 47.5t17 72.5t5 92q0 48 -5.5 89.5t-17.5 71.5t-32 47.5t-48 17.5v122q43 0 76 -27t55.5 -74t34.5 -110.5t12 -136.5z" />
    <glyph glyph-name="asterisk" unicode="*" horiz-adv-x="291" 
d="M249 325h-53l55 -73l-30 -39l-58 78v-77h-38v71l-53 -71l-30 39l54 71h-56v52h60l-58 78l30 38l53 -71v72h38v-80l59 79l29 -38l-56 -77h54v-52z" />
    <glyph glyph-name="plus" unicode="+" horiz-adv-x="290" 
d="M40 164v92h70v93h70v-93h70v-92h-70v-94h-70v94h-70z" />
    <glyph glyph-name="comma" unicode="," horiz-adv-x="153" 
d="M113 99v-97q0 -48 -17.5 -72.5t-43.5 -24.5h-9q-2 0 -2 1l-1 35h1q3 -1 5 -2t6 -1q15 0 25.5 14.5t10.5 43.5v5h-48v98h73z" />
    <glyph glyph-name="hyphen" unicode="-" horiz-adv-x="312" 
d="M272 263v-101h-232v101h232z" />
    <glyph glyph-name="period" unicode="." horiz-adv-x="153" 
d="M113 99v-98h-73v98h73z" />
    <glyph glyph-name="slash" unicode="/" horiz-adv-x="286" 
d="M79 -1l-49 48l179 652l47 -49z" />
    <glyph glyph-name="zero" unicode="0" horiz-adv-x="447" 
d="M41 195v86q0 30 -0.5 62t-0.5 61v94q5 44 22 81t42 64t55.5 42t63.5 15q37 0 70.5 -19.5t59 -53t40 -78t14.5 -95.5v-217q0 -51 -16 -94.5t-42 -75t-59.5 -49.5t-67.5 -18t-63.5 14.5t-53.5 40t-40.5 61.5t-23.5 79zM114 197q15 -45 43.5 -72t64.5 -27t66.5 28.5
t42.5 71.5v292q-6 19 -15 38.5t-21 35.5t-27 26t-33 10h-26q-34 -7 -59 -34t-36 -75v-294z" />
    <glyph glyph-name="one" unicode="1" horiz-adv-x="393" 
d="M192 97v497q-33 -14 -47 -39t-24 -60l-1 -2h-79q0 28 10 58.5t27.5 57.5t39.5 48.5t46 32.5q6 5 15.5 7t13.5 4h77v-604h83v-98h-313v98h152z" />
    <glyph glyph-name="two" unicode="2" horiz-adv-x="454" 
d="M325 400q12 22 12 59q0 23 -6.5 48t-19.5 45.5t-31.5 34t-43.5 13.5h-26q-19 0 -34 -10t-26.5 -25.5t-20 -35t-13.5 -37.5h-75q0 14 3.5 29.5t6.5 27.5q24 69 68.5 109.5t104.5 40.5q38 0 72.5 -18.5t60.5 -50.5t41.5 -75.5t15.5 -93.5q-2 -17 -3 -32t-5.5 -32.5
t-15.5 -40.5t-32.5 -58t-56 -84t-86.5 -117h193v-97h-368z" />
    <glyph glyph-name="three" unicode="3" horiz-adv-x="444" 
d="M116 202q10 -48 39.5 -76t65.5 -28q22 0 42 11.5t35 31.5t23.5 46.5t8.5 56.5q0 22 -5.5 44t-15 40.5t-23 32.5t-29.5 21l-36 9v98l68 -18q3 3 3 15l1 10q1 1 1 7q0 42 -21.5 70t-52.5 28t-52 -30t-21 -75h-72q-1 0 -1 3v6q0 40 11.5 75.5t32 61.5t47 41.5t56.5 15.5
t57 -15.5t47 -42t31.5 -62.5t11.5 -76q0 -55 -16 -87q20 -30 36 -70.5t16 -79.5v-44q0 -44 -15.5 -84.5t-40 -71t-54 -48.5t-57.5 -18h-33q-30 0 -59 19.5t-52.5 49t-38 64.5t-14.5 67v2h76z" />
    <glyph glyph-name="four" unicode="4" horiz-adv-x="520" 
d="M42 112q-2 0 -2 3l1 1q0 3 1 4l200 581h81l-162 -488h175v361h75v-361h69v-101h-72v-112h-72v112h-294z" />
    <glyph glyph-name="five" unicode="5" horiz-adv-x="447" 
d="M132 147q15 -24 37.5 -36.5t46.5 -12.5t45 11.5t36.5 31.5t24.5 47t9 58q0 30 -9 57t-24.5 47t-36.5 31.5t-45 11.5t-46.5 -12.5t-37.5 -36.5h-92v355h230v-99h-154v-143q50 35 101 35q39 0 73.5 -19.5t60.5 -52.5t41 -78t15 -96t-14.5 -96t-40.5 -78.5t-61 -52.5
t-75 -19q-45 0 -88 27t-68 76l-12 24q-1 4 -3.5 10.5t-2.5 7.5v2h90z" />
    <glyph glyph-name="six" unicode="6" horiz-adv-x="445" 
d="M114 699v-259q16 11 32 23t34 17l15 4q1 0 5 1t5 1h35q28 0 57.5 -19t53.5 -50.5t39 -71t15 -80.5v-47q0 -45 -16.5 -85t-42.5 -70.5t-58.5 -48t-64.5 -17.5q-28 0 -55 11.5t-50.5 32.5t-40.5 50.5t-26 65.5q-3 14 -7 32t-4 32v478h74zM331 241q0 31 -8.5 57.5t-23.5 46
t-35 30.5t-43 11q-22 0 -41.5 -11.5t-34 -31t-23 -45.5t-8.5 -56t8.5 -56t23 -45.5t34 -30.5t42.5 -11t43 11t34.5 30t23 45t8.5 56z" />
    <glyph glyph-name="seven" unicode="7" horiz-adv-x="451" 
d="M201 394h-64v98h105l43 108h-240v98h82q28 0 58.5 0.5t58.5 0.5h167l-288 -698h-83z" />
    <glyph glyph-name="eight" unicode="8" horiz-adv-x="446" 
d="M92 416q-16 32 -16 89q0 40 11.5 75.5t31.5 61.5t46.5 41.5t57.5 15.5q30 0 57 -15.5t47 -42t31.5 -62.5t11.5 -76q0 -55 -16 -87q20 -30 36 -70.5t16 -79.5v-44q0 -45 -15.5 -85t-40 -70.5t-54 -48.5t-56.5 -18h-33q-33 0 -63.5 21t-53.5 53t-36.5 71.5t-13.5 76.5v44
q0 42 16 80.5t36 69.5zM114 244q0 -30 8.5 -56.5t23.5 -46.5t34.5 -31.5t42.5 -11.5t43 11.5t35 31t23.5 46.5t8.5 57t-9 56.5t-24 46.5t-35 31.5t-42 11.5q-23 0 -42.5 -11.5t-34.5 -31.5t-23.5 -46.5t-8.5 -56.5zM150 503v-7q0 -7 1 -15t4 -10q12 6 25.5 11.5t26.5 5.5h33
q11 0 26 -5.5t25 -11.5q1 1 2 5.5t2 9.5t1.5 10t0.5 7q0 19 -6 37t-15.5 31.5t-22.5 21.5t-28 8q-32 0 -53.5 -26.5t-21.5 -71.5z" />
    <glyph glyph-name="nine" unicode="9" horiz-adv-x="444" 
d="M330 0v259q-15 -14 -31.5 -25t-34.5 -16l-14 -4q-2 0 -6 -0.5t-5 -0.5h-35q-31 0 -60.5 21t-52.5 53t-37 71t-14 75v46q0 44 16 84t42 70t58.5 48t65.5 18q32 0 64.5 -17.5t58.5 -47.5t42.5 -71t16.5 -87v-476h-74zM114 456q0 -31 8.5 -57.5t23.5 -46t34.5 -30.5
t42.5 -11q22 0 41.5 11.5t34 31t23 46t8.5 55.5q0 30 -8.5 56t-23 45.5t-34 30.5t-41.5 11q-23 0 -42.5 -11t-34.5 -30t-23.5 -45t-8.5 -56z" />
    <glyph glyph-name="colon" unicode=":" horiz-adv-x="157" 
d="M117 99v-98h-73v98h73zM113 493v-97h-73v97h73z" />
    <glyph glyph-name="semicolon" unicode=";" horiz-adv-x="153" 
d="M113 99v-97q0 -48 -17.5 -72.5t-43.5 -24.5h-9q-2 0 -2 1l-1 35h1q3 -1 5 -2t6 -1q15 0 25.5 14.5t10.5 43.5v5h-48v98h73zM113 491v-98h-73v98h73z" />
    <glyph glyph-name="less" unicode="&#x3c;" horiz-adv-x="489" 
d="M110 252l339 210v-81l-268 -166l268 -136v-78l-336 170h-3l-70 36l1 2z" />
    <glyph glyph-name="equal" unicode="=" horiz-adv-x="314" 
d="M274 171v-51h-232v51h232zM272 333v-51h-232v51h232z" />
    <glyph glyph-name="greater" unicode="&#x3e;" horiz-adv-x="489" 
d="M381 252l68 -44l-69 -37h-3l-336 -170v78l267 136l-268 166v81z" />
    <glyph glyph-name="question" unicode="?" horiz-adv-x="450" 
d="M228 297l22 7q19 4 34.5 18.5t26 34.5t16.5 43.5t6 46.5q0 31 -9.5 59t-25 48t-36.5 32t-45 12q-53 0 -87 -49h-90v2q0 1 2.5 7.5t4.5 11.5q27 63 72 96t99 33q40 0 75 -20t61 -54t41 -80t15 -98q0 -37 -8.5 -72.5t-23.5 -66.5t-36.5 -55t-47.5 -37q-6 -3 -16.5 -6.5
t-21 -6.5t-18 -6t-7.5 -6v-46h-78v152h75zM231 98v-101h-78v101h78z" />
    <glyph glyph-name="at" unicode="@" horiz-adv-x="555" 
d="M40 353q0 73 21 136.5t57 111t84 75t103 27.5q51 0 97 -24.5t81 -69.5l14 -18q4 -5 10 -15.5t7 -12.5l1 -354h-53l-1 34q-16 -11 -31.5 -21.5t-33.5 -10.5h-12q-29 0 -53.5 13.5t-42.5 37.5t-28 56t-10 70q0 36 10.5 67.5t28.5 55.5t42 38t51 14q18 0 34.5 -6.5
t32.5 -17.5q4 -2 7 -5.5t4 -3.5l1 14q0 1 -6.5 9t-10.5 13q-28 35 -64.5 53t-75.5 18q-44 0 -82.5 -22t-67 -60.5t-45 -90.5t-16.5 -111t16.5 -109.5t45.5 -88t67.5 -59t82.5 -21.5q13 0 26 1.5t25 5.5v-76q-5 -4 -17 -5.5t-24 -1.5h-12q-55 0 -103 28t-83.5 76t-56 112.5
t-20.5 137.5zM303 387q0 -22 6.5 -41t17.5 -33.5t25.5 -22.5t30.5 -8q34 0 56 30.5t22 75.5q0 43 -22.5 73t-55.5 30q-34 0 -57 -29.5t-23 -74.5z" />
    <glyph glyph-name="A" unicode="A" horiz-adv-x="496" 
d="M41 481q2 46 19.5 86t46 69.5t65 46t77.5 16.5q38 0 75 -18.5t66.5 -50t47.5 -74.5t18 -91v-462h-81v392h-252v-396h-83zM249 599q-42 0 -76 -29t-44 -77h239q-10 48 -43.5 77t-75.5 29z" />
    <glyph glyph-name="B" unicode="B" horiz-adv-x="497" 
d="M123 1h-83v698h83l1 -8q34 8 41 8q26 0 49 -11.5t40 -31.5t27 -46t10 -56q0 -8 -1.5 -18.5t-3.5 -20.5t-4.5 -17t-3.5 -7v-1q36 -8 68 -27.5t57 -49t39.5 -68.5t14.5 -85v-14q0 -51 -16.5 -95.5t-45 -77.5t-66 -52.5t-80.5 -19.5q-36 0 -66.5 13.5t-59.5 37.5v-51z
M165 603q-13 0 -26.5 -12t-13.5 -28v-332q0 -29 11.5 -53.5t30 -42t41 -27t44.5 -9.5q25 0 47 12t38.5 32t26 47t9.5 57t-9.5 57t-26 47.5t-39 32t-49.5 11.5q-10 0 -20 -2t-20 -5h-2v175q-3 18 -15 29t-27 11z" />
    <glyph glyph-name="C" unicode="C" horiz-adv-x="451" 
d="M40 351q0 73 22 136.5t59.5 111t88.5 75t109 27.5q26 0 77 -14q4 0 9 -2.5t6 -2.5v-123q-40 25 -85 25q-38 0 -72 -18.5t-59.5 -50t-40 -74t-14.5 -90.5q0 -50 14.5 -92.5t40 -74t59.5 -49t74 -17.5q46 0 83 25v-123q-1 0 -6 -2.5t-9 -3.5q-26 -13 -78 -13
q-58 0 -108.5 27.5t-88 75.5t-59.5 111.5t-22 135.5z" />
    <glyph glyph-name="D" unicode="D" horiz-adv-x="505" 
d="M40 -4v704h82v-27h4q39 18 81 18q54 0 101 -27t82 -74t55 -110.5t20 -135.5q0 -71 -19.5 -134.5t-54 -111t-81 -75t-100.5 -27.5q-51 0 -88 19v-19h-82zM201 112q36 0 67.5 18t54.5 49.5t36.5 74t13.5 90.5t-13 90t-36.5 73.5t-54.5 49.5t-67 18q-21 0 -67 -17
q-3 0 -7.5 -5t-5.5 -5v-411q13 -10 36.5 -17.5t42.5 -7.5z" />
    <glyph glyph-name="E" unicode="E" horiz-adv-x="454" 
d="M40 349q0 72 22 136t60.5 111.5t89.5 75t109 27.5q21 0 42 -4t41 -11h1q1 -2 4 -3t4 -1v-122q-20 12 -41.5 19t-44.5 7q-50 0 -95.5 -24t-68.5 -73h153v-106h-181q-1 -9 -1.5 -18t-0.5 -17q0 -48 17.5 -90t45 -73t62 -49t69.5 -18q21 0 44 5.5t43 19.5v-121
q0 -3 -11 -6.5t-26 -6.5t-31 -5t-25 -2q-58 0 -109 27.5t-89.5 75t-60.5 111t-22 135.5z" />
    <glyph glyph-name="F" unicode="F" horiz-adv-x="326" 
d="M40 454q0 53 9.5 97t34.5 76t66.5 49.5t106.5 17.5h29v-123q-11 0 -21.5 0.5t-19.5 0.5q-29 0 -48.5 -3t-32.5 -12t-20.5 -26t-11.5 -45h104v-117h-112v-369h-84v454z" />
    <glyph glyph-name="G" unicode="G" horiz-adv-x="504" 
d="M380 20q-22 -9 -42.5 -14t-43.5 -5q-52 0 -98 27.5t-80.5 75t-55 111.5t-20.5 136q0 28 3 53t8 51v1q24 94 71.5 155.5t119.5 83.5l14 3q9 4 22 4h16q21 0 39 -4t37 -11h1q1 0 4 -1.5t3 -2.5v-123q-18 13 -37.5 20t-38.5 7q-36 0 -67 -18.5t-54 -50.5t-36 -75t-13 -92
q0 -48 13 -90.5t36 -74t53.5 -50t65.5 -18.5q10 0 23.5 2.5t25.5 6t20.5 7.5t8.5 8v236h-84v109h170v-487h-84v20z" />
    <glyph glyph-name="H" unicode="H" horiz-adv-x="498" 
d="M123 699v-208h252v208h83v-698h-83v392h-252v-392h-83v698h83z" />
    <glyph glyph-name="I" unicode="I" horiz-adv-x="163" 
d="M123 696v-696h-83v696h83z" />
    <glyph glyph-name="J" unicode="J" horiz-adv-x="239" 
d="M199 204q-1 -56 -5.5 -94.5t-16.5 -62.5t-35 -35t-62 -11h-19q-5 0 -10 0.5t-11 1.5v109h20q13 0 24.5 2t19 9.5t12 22.5t4.5 42v511h79v-495z" />
    <glyph glyph-name="K" unicode="K" horiz-adv-x="476" 
d="M126 702v-207l205 203l50 -90l-177 -173l232 -359l-63 -76l-247 390v-390h-86v702h86z" />
    <glyph glyph-name="L" unicode="L" horiz-adv-x="238" 
d="M123 699v-595h75v-104h-158v699h83z" />
    <glyph glyph-name="M" unicode="M" horiz-adv-x="601" 
d="M123 3h-83v692h83l179 -484h2l173 485h84v-693h-82v446l-175 -482l-181 482v-446z" />
    <glyph glyph-name="N" unicode="N" horiz-adv-x="499" 
d="M40 697h86l249 -498v500h84v-698h-81l-2 2q-1 3 -5 11t-12 24.5t-22 44t-35 69.5l-177 353v-504h-85v696z" />
    <glyph glyph-name="O" unicode="O" horiz-adv-x="604" 
d="M40 349q0 73 20.5 137t56.5 111t84 74t102 27t101.5 -27.5t83 -75t56 -111t20.5 -135.5t-21 -135.5t-56.5 -110.5t-83 -74.5t-101.5 -27.5t-101.5 27.5t-83.5 74.5t-56.5 110.5t-20.5 135.5zM127 349q0 -48 14 -90.5t37.5 -73.5t55.5 -49t68 -18q37 0 69 18t55.5 49.5
t37 74t13.5 91.5q0 48 -14 90t-37.5 73.5t-55.5 49.5t-68 18t-68 -18.5t-55.5 -50t-37.5 -74t-14 -90.5z" />
    <glyph glyph-name="P" unicode="P" horiz-adv-x="452" 
d="M114 696v-16q31 16 77 16t86 -24t70 -64.5t47.5 -95t17.5 -115.5q0 -63 -17.5 -117.5t-48 -95t-71.5 -64t-88 -23.5q-17 0 -35 3t-35 11h-3v-113h-74v698h74zM183 596q-17 0 -36.5 -6t-32.5 -15v-355q15 -14 34 -18.5t35 -4.5q31 0 58.5 15.5t48 42.5t32 63.5t11.5 78.5
q0 40 -12 76.5t-32.5 63.5t-47.5 43t-58 16z" />
    <glyph glyph-name="Q" unicode="Q" horiz-adv-x="603" 
d="M450 66q-71 -62 -148 -62q-20 0 -38 2.5t-36 10.5l-19 9q-37 19 -68 51.5t-53.5 74.5t-35 92.5t-12.5 106.5t13 108t37 96t57 77t73 51l1 -1q2 0 2 2l20 6q10 3 19.5 5t19.5 4h39l22 -3l17 -6q45 -12 82 -44.5t63.5 -78t41.5 -101.5t15 -115q0 -13 -0.5 -25.5t-1.5 -25.5
q0 -4 -3 -18t-3 -20v-1q-14 -62 -41 -115l50 -68l-60 -79zM126 351q0 -48 14 -90.5t38 -73.5t56 -49t68 -18q18 0 36 4t35 16l14 10l-69 93l60 81l72 -94q13 25 19 58.5t6 64.5q0 48 -13.5 90t-37 73.5t-55 49.5t-67.5 18t-68 -18.5t-56 -50t-38 -74t-14 -90.5z" />
    <glyph glyph-name="R" unicode="R" 
d="M120 699v-9h2q14 4 28 6.5t29 2.5q47 0 88.5 -23.5t73 -63.5t49.5 -93.5t18 -114.5q0 -57 -16.5 -108.5t-45.5 -93.5l61 -201h-98l-39 128l-4 3q-44 -23 -89 -23q-14 0 -28 2.5t-27 6.5h-2v-117h-80v698h80zM120 220q0 -2 6.5 -4t15.5 -4t17.5 -3t13.5 -1q31 0 58.5 15
t48 41t32.5 62t12 78t-12 78.5t-32.5 62.5t-48 41t-58.5 15q-14 0 -29 -3.5t-24 -8.5v-369z" />
    <glyph glyph-name="S" unicode="S" horiz-adv-x="491" 
d="M150 130q40 -33 82 -33q45 0 82 31.5t54 86.5q1 5 2 11t2 19t2.5 35.5t3.5 60.5q0 11 -0.5 24.5t-0.5 29.5h-337v35q2 56 21.5 105t50 85.5t69.5 57.5t80 21q18 0 34 -3t33 -11l6 -3v-101q-18 10 -34 15t-35 5q-36 0 -67.5 -23t-50.5 -62q-4 -3 -7 -11.5t-3 -10.5h313
q0 -29 0.5 -53t0.5 -45q0 -64 -2 -102t-4.5 -59.5t-5 -32t-4.5 -19.5q-12 -41 -32.5 -75t-47 -58t-57.5 -37t-64 -13q-28 0 -76 17l-8 5v108z" />
    <glyph glyph-name="T" unicode="T" horiz-adv-x="310" 
d="M270 700v-109h-72v-591h-81v594h-77v106h230z" />
    <glyph glyph-name="U" unicode="U" horiz-adv-x="494" 
d="M40 217v484h83v-471q7 -29 17 -54t24.5 -43t34.5 -28t48 -10q21 0 43 10t40 28t29.5 42t11.5 52l1 469h82v-464q0 -49 -17.5 -92t-46.5 -75t-66.5 -50.5t-76.5 -18.5q-40 0 -75 16.5t-62.5 45.5t-45.5 70t-24 89z" />
    <glyph glyph-name="V" unicode="V" horiz-adv-x="549" 
d="M255 86l-215 613h82l171 -484l137 484h79l-172 -609v-5l-36 -126q-2 0 -2 2l-44 121v4z" />
    <glyph glyph-name="W" unicode="W" horiz-adv-x="812" 
d="M421 280l-96 -313q-1 0 -2 1l-283 728h89l187 -476l57 183l-113 291h90l63 -164l53 166h86l-91 -289l75 -190l150 477h86l-227 -730l-2 2z" />
    <glyph glyph-name="X" unicode="X" 
d="M40 697h98l85 -218l83 218h97l-131 -346l136 -350h-99l-85 220l-83 -220h-99l132 348z" />
    <glyph glyph-name="Y" unicode="Y" horiz-adv-x="499" 
d="M192 219l-27 11l-23 14l-26 21q-44 41 -62 102l-6 21q-5 16 -6.5 31t-1.5 32l2 246h81l2 -267q3 -19 9 -36.5t18 -31.5l19 -23q9 -8 22.5 -16t41.5 -15h30l17 3q13 4 25 11.5t23 16.5l12 14q16 20 25.5 47.5t9.5 53.5l1 243h81v-260q-1 -13 -2.5 -25.5t-4.5 -23.5v-1
q-34 -127 -145 -168l-7 -3v-215h-100v215q0 2 -2.5 2t-5.5 1z" />
    <glyph glyph-name="Z" unicode="Z" horiz-adv-x="452" 
d="M40 107l272 486h-271v106h371v-106l-277 -486h277v-108h-372v108z" />
    <glyph glyph-name="bracketleft" unicode="[" horiz-adv-x="139" 
d="M108 706v-104h-23v-498h24v-104h-79v706h78z" />
    <glyph glyph-name="backslash" unicode="\" horiz-adv-x="286" 
d="M30 650l46 49l180 -652l-48 -48z" />
    <glyph glyph-name="bracketright" unicode="]" horiz-adv-x="139" 
d="M109 706v-706h-79v104h25v498h-24v104h78z" />
    <glyph glyph-name="asciicircum" unicode="^" horiz-adv-x="425" 
d="M198 598l33 91l154 -545h-58l-101 357l-126 -357h-60z" />
    <glyph glyph-name="underscore" unicode="_" horiz-adv-x="451" 
d="M411 -36v-71h-371v71h371z" />
    <glyph glyph-name="grave" unicode="`" horiz-adv-x="233" 
d="M193 570l-33 -52l-120 132l32 52z" />
    <glyph glyph-name="a" unicode="a" horiz-adv-x="451" 
d="M336 47q-51 -48 -111 -48q-39 0 -73 19.5t-58.5 53t-39 79t-14.5 97.5t14.5 96.5t40 77.5t59.5 52t72 19q60 0 110 -48v46h75v-494h-75v50zM114 246q0 -30 9 -57t24 -47.5t35 -32t43 -11.5q22 0 42.5 11.5t35.5 32t24 47.5t9 57t-9 57.5t-24 47.5t-35.5 32t-42.5 12
q-23 0 -43 -12t-35 -32t-24 -47.5t-9 -57.5z" />
    <glyph glyph-name="b" unicode="b" 
d="M114 1h-74v698h74v-257q28 25 55 37t60 12q39 0 71.5 -20.5t56.5 -55t37.5 -79t13.5 -91.5q0 -51 -14.5 -96t-39.5 -78t-59 -52t-72 -19q-31 0 -57.5 12.5t-51.5 35.5v-47zM114 245q0 -31 9 -57.5t24 -46t35 -30.5t43 -11q22 0 42 11.5t34.5 31t23 46t8.5 56.5t-8.5 56.5
t-23 46.5t-34 31.5t-41.5 11.5q-24 0 -44.5 -11t-35.5 -30.5t-23.5 -46.5t-8.5 -58z" />
    <glyph glyph-name="c" unicode="c" horiz-adv-x="301" 
d="M40 246q0 51 14.5 95.5t39.5 78t58.5 52.5t72.5 19h14q4 0 11 -1.5t10 -2.5l1 -102h-2q-9 3 -17 5t-17 2q-23 0 -43 -11.5t-35 -31.5t-24 -47t-9 -58q0 -30 9 -56.5t24 -46t35 -31t43 -11.5q9 0 17 2t17 5h2l-1 -102q-3 -1 -10 -2.5t-11 -1.5h-14q-39 0 -72.5 19
t-58.5 52t-39.5 78t-14.5 97z" />
    <glyph glyph-name="d" unicode="d" 
d="M334 48q-50 -48 -109 -48q-38 0 -71.5 19t-58.5 52t-40 78t-15 96q0 47 13.5 91.5t37.5 79t57 55t71 20.5q34 0 61 -12t54 -37v257h74v-698h-74v47zM334 245q0 31 -9 58t-24 46.5t-35.5 30.5t-42.5 11q-23 0 -42.5 -11.5t-34 -31.5t-23 -46.5t-8.5 -56.5t8.5 -56.5
t23 -46t34 -31t42.5 -11.5q22 0 42.5 11t35.5 30.5t24 46t9 57.5z" />
    <glyph glyph-name="e" unicode="e" 
d="M40 248q0 51 14.5 95.5t39.5 77t59 51.5t72 19t71.5 -19.5t58 -52.5t39 -77.5t14.5 -95.5v-18q0 -7 -1.5 -20t-2.5 -13h-284q4 -21 15 -39t25.5 -30.5t31 -19.5t32.5 -7q7 0 19 1.5t15 5.5h2v-102q-2 -1 -11.5 -2t-14.5 -1h-11q-39 0 -72.5 19.5t-58 53t-38.5 78.5
t-14 96zM224 393q-34 0 -64 -27.5t-40 -72.5h208q-10 45 -40 72.5t-64 27.5z" />
    <glyph glyph-name="f" unicode="f" horiz-adv-x="299" 
d="M259 694v-99q-17 3 -31 3q-51 0 -78.5 -31t-32.5 -76h104v-98h-108v-393h-73v493q0 11 3.5 26.5t9 31.5t11.5 30t11 22q27 45 64 69t80 25z" />
    <glyph glyph-name="g" unicode="g" 
d="M67 119q-11 26 -19 57t-8 70q0 54 15.5 100t43.5 80v1q24 31 56 48t70 17q58 0 109 -48v48h74v-505q-2 -48 -17 -84.5t-39 -60.5t-54.5 -36.5t-63.5 -12.5h-24q-2 0 -5 0.5t-8 1.5l-9 3v102q29 -8 35 -8q24 0 44.5 12t35.5 32.5t23.5 48.5t8.5 60q0 3 -1 4
q-51 -48 -111 -48q-45 0 -85 27t-66 81zM124 181l8 -18q16 -30 40.5 -47t51.5 -17q20 0 39 10t34.5 27.5t25.5 41.5t12 52v17q0 31 -8.5 58t-23.5 47t-35.5 31.5t-43.5 11.5t-43 -11.5t-35 -31.5t-23.5 -47t-8.5 -57q0 -43 10 -67z" />
    <glyph glyph-name="h" unicode="h" 
d="M113 696v-256q49 48 112 48q34 0 66.5 -18t58.5 -49.5t42 -74.5t16 -92v-254h-73l-2 261q0 30 -10.5 54t-26.5 41t-35 26t-37 9q-24 0 -44 -11.5t-34.5 -31.5t-23 -46.5t-9.5 -57.5v-245h-73v697h73z" />
    <glyph glyph-name="i" unicode="i" horiz-adv-x="154" 
d="M114 491v-490h-73v490h73zM113 699v-98h-73v98h73z" />
    <glyph glyph-name="j" unicode="j" horiz-adv-x="152" 
d="M-95 -206q-2 0 -7 1.5t-5 2.5v98q10 0 21 -2.5t22 -2.5q19 0 37.5 6.5t33 20t23.5 33.5t9 46l1 494h72v-500q0 -45 -13.5 -82t-35.5 -62.5t-51 -39.5t-60 -14h-10q-8 0 -9 1h-28zM112 700v-97h-73v97h73z" />
    <glyph glyph-name="k" unicode="k" horiz-adv-x="370" 
d="M114 700v-424l162 218l51 -68l-129 -178l132 -178l-51 -68l-133 176l-32 -43v-136h-74v701h74z" />
    <glyph glyph-name="l" unicode="l" horiz-adv-x="153" 
d="M113 704v-704h-73v704h73z" />
    <glyph glyph-name="m" unicode="m" horiz-adv-x="610" 
d="M205 241q0 79 35 147h-8q-23 0 -43.5 -11.5t-35.5 -31t-24 -45.5t-9 -56v-243h-80v486h73v-45l22 19q18 16 42 22t45 6q23 0 43 -7t41 -19h3q41 23 78 23q60 0 106 -43.5t66 -118.5q4 -14 7.5 -30t3.5 -31v-263h-72v234q0 33 -8.5 61.5t-24 49t-37 32t-46.5 11.5l-10 -2
q15 -32 24 -67.5t9 -73.5v-244h-65v242q0 29 -8 52.5t-23 46.5q-15 -20 -23 -45.5t-8 -57.5v-239h-71z" />
    <glyph glyph-name="n" unicode="n" horiz-adv-x="449" 
d="M193 389v-2q-15 -6 -29 -19t-25.5 -31t-18 -39.5t-6.5 -44.5v-255h-74v491h74v-45q53 47 111 47q39 0 72.5 -19.5t58.5 -53.5t39 -79.5t14 -97.5v-243h-73v255q-2 30 -11.5 55.5t-24.5 44t-34.5 29.5t-40.5 11q-25 0 -32 -4z" />
    <glyph glyph-name="o" unicode="o" horiz-adv-x="452" 
d="M40 248q0 51 14.5 96t40 79t59 53.5t71.5 19.5q39 0 73 -19.5t59.5 -53.5t40 -79.5t14.5 -96.5t-14.5 -96t-40 -78.5t-59.5 -53t-73 -19.5q-38 0 -71.5 19.5t-59 53.5t-40 79t-14.5 96zM116 248q0 -31 8.5 -57.5t23.5 -46.5t35 -31.5t43 -11.5t43 11.5t35 31.5t23.5 46.5
t8.5 57.5q0 30 -8.5 57t-23.5 47t-35 31.5t-43 11.5t-43 -11.5t-35 -31.5t-23.5 -46.5t-8.5 -57.5z" />
    <glyph glyph-name="p" unicode="p" 
d="M114 444q49 48 109 48q38 0 71.5 -19t59 -52t40 -78t14.5 -96q0 -47 -13.5 -91.5t-37.5 -79t-56.5 -55t-70.5 -20.5q-34 0 -61 12t-55 37v-257h-73v130q0 43 -0.5 90.5t-0.5 92.5v198q0 33 0.5 70.5t0.5 70.5v46h73v-47zM114 247q0 -32 9 -58.5t24 -46t35 -30.5t43 -11
t43 11.5t34.5 31.5t22.5 46.5t8 56.5t-8 56.5t-22.5 46t-34.5 31t-43 11.5t-43 -11t-35 -30.5t-24 -46t-9 -57.5z" />
    <glyph glyph-name="q" unicode="q" 
d="M334 491h74v-698h-74v257q-28 -25 -55 -37t-60 -12q-39 0 -71.5 20.5t-56.5 55t-37.5 79t-13.5 91.5q0 51 14.5 96t39.5 78t59 52t72 19q59 0 109 -48v47zM334 247q0 31 -9 57.5t-24 46t-35.5 30.5t-42.5 11q-23 0 -42.5 -11.5t-34 -31t-23 -46t-8.5 -56.5t8.5 -56.5
t23 -46.5t34 -31.5t42.5 -11.5q22 0 42.5 11t35.5 30.5t24 46t9 58.5z" />
    <glyph glyph-name="r" unicode="r" horiz-adv-x="301" 
d="M114 489v-45q51 48 111 48q1 0 6.5 -1t12.5 -2l17 -3v-100q-9 2 -18 4.5t-19 2.5q-21 0 -40.5 -11t-35 -29.5t-25 -44t-9.5 -54.5v-255h-74v490h74z" />
    <glyph glyph-name="s" unicode="s" horiz-adv-x="378" 
d="M116 106q10 -4 18.5 -6t18.5 -2q32 0 57 20.5t40 57.5l7 21h-213q-2 14 -3 27.5t-1 27.5q0 49 15 93t40.5 76.5t59 51.5t70.5 19q9 0 18 -1t18 -4l-1 -101q-10 3 -18 5t-17 2q-28 0 -52.5 -16.5t-39.5 -47.5l-12 -33h213l4 -52q0 -51 -14.5 -95.5t-39.5 -78t-58.5 -52.5
t-72.5 -19h-15q-1 0 -7 1.5t-11 1.5l-4 2v102z" />
    <glyph glyph-name="t" unicode="t" horiz-adv-x="301" 
d="M40 206v490h73v-206h111v-98h-111l1 -187q3 -30 13.5 -52.5t25.5 -37.5t33 -22.5t37 -7.5q11 0 18.5 1.5t17.5 5.5h2v-88l-2 -1q0 -2 -9 -3t-19 -1h-9q-35 0 -66 14t-55.5 40t-40 63t-18.5 83z" />
    <glyph glyph-name="u" unicode="u" horiz-adv-x="449" 
d="M256 99v2q14 6 28.5 19t26 31t18.5 39.5t7 45.5v255h73v-491h-73l-1 45q-53 -47 -111 -47q-39 0 -72.5 19.5t-58 53.5t-39 79.5t-14.5 96.5v244h73l1 -256q1 -30 10.5 -55t25 -44t35 -29.5t40.5 -10.5q16 0 31 3z" />
    <glyph glyph-name="v" unicode="v" 
d="M40 243v65q0 33 0.5 69t0.5 68v46h72v-49q0 -34 0.5 -73t0.5 -74v-48q0 -26 5 -49.5t19 -43.5l15 -22h2q16 -18 37 -28q5 -2 10 -2.5t8 -2.5h27q3 2 7.5 2.5t7.5 2.5q22 8 41 28l12 13q13 22 21.5 47.5t8.5 54.5v122q0 39 0.5 73.5t0.5 48.5h72v-262q0 -50 -16.5 -91.5
t-43 -72t-59 -47.5t-65.5 -17q-38 0 -71 19t-58.5 52t-40 77t-14.5 94z" />
    <glyph glyph-name="w" unicode="w" horiz-adv-x="618" 
d="M307 27q-44 -26 -84 -26q-37 0 -70 19t-58 51.5t-40 76.5t-15 94v247h74v-269q4 -35 24 -67l5 -10l11 -12q14 -15 26 -21t30 -11h26q1 0 5 0.5t5 1.5q-15 29 -24 60t-11 66v263h73q0 -251 4.5 -280t20.5 -57l3 3q21 40 21 89v244h73v-262q-4 -35 -11.5 -65.5t-22.5 -59.5
v-1q1 -1 4.5 -1.5t5.5 -0.5h12q26 0 46.5 12.5t34.5 33.5t21.5 50t7.5 295h74v-263q0 -48 -16.5 -89.5t-43 -72t-59 -48t-65.5 -17.5q-22 0 -43 7t-44 20z" />
    <glyph glyph-name="x" unicode="x" horiz-adv-x="447" 
d="M92 0l-52 67l131 177l-131 177l52 68l131 -177l133 177l51 -68l-132 -179l130 -176l-51 -68l-131 176z" />
    <glyph glyph-name="y" unicode="y" 
d="M187 -100l1 -1q9 -2 16.5 -4.5t17.5 -2.5q22 0 42.5 11t35.5 30t24 45.5t9 58.5v9q-34 -22 -56.5 -33.5t-51.5 -11.5q-38 0 -71.5 19t-59 51.5t-40 77t-14.5 95.5v64q0 32 0.5 68.5t0.5 68.5v46h72l1 -262q0 -20 6.5 -39.5t17.5 -36.5t25 -29.5t30 -18.5q4 -1 9 -1.5
t9 -3.5h25q17 7 30 11t27 21l10 12q16 24 22 47t10 55v245h73v-490q0 -2 -2.5 -13t-5.5 -22l-3 -12q-9 -37 -26.5 -66.5t-40.5 -50.5t-49.5 -32t-54.5 -11h-15q-5 0 -13.5 2t-10.5 2v102z" />
    <glyph glyph-name="z" unicode="z" horiz-adv-x="452" 
d="M40 97l259 298h-258v98h370v-100l-260 -299h261v-97h-372v100z" />
    <glyph glyph-name="bar" unicode="|" horiz-adv-x="153" 
d="M113 704v-704h-73v704h73z" />
    <glyph glyph-name="exclamdown" unicode="&#xa1;" horiz-adv-x="154" 
d="M114 491v-490h-73v490h73zM113 699v-98h-73v98h73z" />
    <glyph glyph-name="cent" unicode="&#xa2;" horiz-adv-x="340" 
d="M249 748v-49q12 -1 24.5 -4.5t26.5 -8.5v-86q-12 8 -25.5 12t-25.5 5v-327q27 1 51 18v-87q-14 -5 -26.5 -8.5t-24.5 -4.5v-49h-54v54q-33 9 -61.5 31t-49.5 54t-32.5 72t-11.5 84t11.5 84t32 71.5t49 53.5t62.5 31v54h54zM110 454q0 -55 23 -96t62 -58v307
q-39 -18 -62 -58.5t-23 -94.5z" />
    <glyph glyph-name="sterling" unicode="&#xa3;" horiz-adv-x="314" 
d="M77 490v209h84v-209h111v-106h-112v-280h114v-104h-199v384h-35v106h37z" />
    <glyph glyph-name="yen" unicode="&#xa5;" horiz-adv-x="501" 
d="M125 99v97h83v17l-2 1q-36 10 -66.5 32.5t-52.5 53.5t-34.5 70t-12.5 82v65q0 33 0.5 69.5t0.5 68.5v46h84v-271q4 -33 28 -68l18 -22q15 -16 31 -20.5t33 -12.5h30q20 8 35.5 13.5t29.5 19.5l8 7q18 23 29 50t11 59v245h83v-264l-3 -24q-5 -36 -19.5 -69t-37 -60
t-50 -45.5t-57.5 -24.5l-1 -18h84v-97h-84v-98h-85v98h-83z" />
    <glyph glyph-name="dieresis" unicode="&#xa8;" horiz-adv-x="289" 
d="M99 597v-78h-59v78h59zM249 597v-78h-57v78h57z" />
    <glyph glyph-name="copyright" unicode="&#xa9;" 
d="M40 453q0 52 14.5 96.5t40 77.5t59 52t71.5 19q39 0 72 -19.5t58 -53t39 -78t14 -94.5q0 -51 -14.5 -95.5t-39.5 -78t-58.5 -52.5t-71.5 -19t-71 19.5t-58.5 52.5t-40 77.5t-14.5 95.5zM102 453q0 -35 9.5 -64.5t26 -51.5t38.5 -34.5t48 -12.5q25 0 47.5 12.5t39.5 35
t26.5 52t9.5 64.5q0 34 -10 63.5t-26.5 51.5t-39 35t-47.5 13q-26 0 -48 -13t-38.5 -35.5t-26 -52t-9.5 -63.5zM154 455q0 42 20.5 70t52.5 28h7q0 -1 3 -1.5t4 -0.5l1 -41h-1q-8 3 -13 3q-19 0 -32 -17t-13 -42q0 -24 13.5 -41t31.5 -17q3 0 6 1t7 2v-41q-1 0 -2 -0.5
t-2 -0.5h-9q-32 0 -53 28t-21 70z" />
    <glyph glyph-name="ordfeminine" unicode="&#xaa;" horiz-adv-x="294" 
d="M210 236q-27 -28 -64 -28q-22 0 -41.5 11t-33.5 30.5t-22.5 46t-8.5 56.5t8.5 55.5t23 44.5t34 30t41.5 11q36 0 63 -28l1 27h43v-285h-43zM83 351q0 -35 18.5 -60.5t45.5 -25.5q26 0 45 25.5t19 60.5q0 17 -5 32.5t-14 27t-20.5 18.5t-24.5 7q-27 0 -45.5 -25.5
t-18.5 -59.5z" />
    <glyph glyph-name="guillemotleft" unicode="&#xab;" 
d="M79 252l192 210v-81l-151 -166l151 -136v-78l-189 170h-3l-39 36l1 2zM216 252l192 210v-81l-151 -166l151 -136v-78l-189 170h-3l-39 36l1 2z" />
    <glyph glyph-name="registered" unicode="&#xae;" 
d="M40 453q0 52 14.5 96.5t40 77.5t59 52t71.5 19q39 0 72 -19.5t58 -53t39 -78t14 -94.5q0 -51 -14.5 -95.5t-39.5 -78t-58.5 -52.5t-71.5 -19t-71 19.5t-58.5 52.5t-40 77.5t-14.5 95.5zM102 453q0 -35 9.5 -64.5t26 -51.5t38.5 -34.5t48 -12.5q25 0 47.5 12.5t39.5 35
t26.5 52t9.5 64.5q0 34 -10 63.5t-26.5 51.5t-39 35t-47.5 13q-26 0 -48 -13t-38.5 -35.5t-26 -52t-9.5 -63.5zM211 551l1 -18q19 19 44 19h5q7 0 10 -3l-1 -40q-3 1 -6.5 2t-7.5 1q-16 0 -30.5 -16t-14.5 -40v-104h-29v199h29z" />
    <glyph glyph-name="macron" unicode="&#xaf;" horiz-adv-x="311" 
d="M271 585v-65h-231v65h231z" />
    <glyph glyph-name="plusminus" unicode="&#xb1;" horiz-adv-x="291" 
d="M110 101v94h-70v92h70v93h70v-93h70v-92h-70v-94h71v-102h-211v102h70z" />
    <glyph glyph-name="twosuperior" unicode="&#xb2;" horiz-adv-x="265" 
d="M182 551q6 10 6 29q0 12 -3.5 24t-10 22.5t-16 17t-21.5 6.5h-12q-20 0 -31 -17t-16 -37h-38q0 23 8.5 42t22 33t30 21.5t31.5 7.5q20 0 37 -10t29.5 -27t19.5 -40t7 -49q0 -9 -2 -20.5t-11.5 -30t-29.5 -48t-56 -75.5h97v-48h-183l1 1z" />
    <glyph glyph-name="threesuperior" unicode="&#xb3;" horiz-adv-x="262" 
d="M78 451q5 -23 20 -37.5t32 -14.5q23 0 39.5 21.5t16.5 51.5q0 23 -10.5 42.5t-26.5 26.5l-19 5v48l35 -8q2 2 2 7v9q0 21 -10.5 34.5t-26.5 13.5q-12 0 -21.5 -9.5t-13.5 -25.5l-2 -17h-36v5q0 20 6 38t16 31t23 20.5t28 7.5q32 0 53 -28t21 -70q0 -31 -7 -44
q10 -15 17.5 -35t7.5 -40v-22q0 -20 -7.5 -40t-19 -35.5t-26.5 -25.5t-30 -10h-16q-15 0 -29 8.5t-25.5 22.5t-19 32t-9.5 37v1h38z" />
    <glyph glyph-name="acute" unicode="&#xb4;" horiz-adv-x="233" 
d="M161 702l32 -52l-121 -132l-32 52z" />
    <glyph glyph-name="mu" unicode="&#xb5;" horiz-adv-x="357" 
d="M155 99q6 -3 12 -3h12q16 0 30.5 10.5t26 29.5t18.5 44t8 55v256h55v-244q0 -51 -10.5 -96.5t-29 -79.5t-44 -53.5t-54.5 -19.5q-45 0 -83 47v-115h-56v561h56v-255q0 -49 18.5 -85t40.5 -52z" />
    <glyph glyph-name="mu" unicode="&#x3bc;" horiz-adv-x="357" 
d="M155 99q6 -3 12 -3h12q16 0 30.5 10.5t26 29.5t18.5 44t8 55v256h55v-244q0 -51 -10.5 -96.5t-29 -79.5t-44 -53.5t-54.5 -19.5q-45 0 -83 47v-115h-56v561h56v-255q0 -49 18.5 -85t40.5 -52z" />
    <glyph glyph-name="periodcentered" unicode="&#xb7;" horiz-adv-x="153" 
d="M113 395v-98h-73v98h73z" />
    <glyph glyph-name="cedilla" unicode="&#xb8;" horiz-adv-x="163" 
d="M81 1v-33q19 -11 30.5 -33.5t11.5 -51.5q0 -39 -20 -66t-49 -27h-6q-1 0 -3.5 0.5t-3.5 0.5l-1 39h1q4 -3 13 -3q17 0 29 16t12 39q0 24 -12 40t-29 16q-3 0 -6 -0.5t-7 -1.5l-1 38h1q1 1 4 1h6v26h30z" />
    <glyph glyph-name="onesuperior" unicode="&#xb9;" horiz-adv-x="237" 
d="M116 398l-1 248q-16 -8 -23 -20.5t-11 -29.5h-41q0 13 5 28t14 29t20 25t23 16l9 4q3 0 5 2h39v-302h42v-49h-157v49h76z" />
    <glyph glyph-name="ordmasculine" unicode="&#xba;" horiz-adv-x="291" 
d="M40 351q0 29 8.5 54.5t23 44.5t33.5 30t41 11t41 -11t33 -30t22.5 -45t8.5 -55t-8.5 -54.5t-22.5 -44.5t-33 -30t-41 -11t-41.5 11t-33.5 30.5t-22.5 45t-8.5 54.5zM83 351q0 -35 18.5 -59.5t44.5 -24.5t44.5 24.5t18.5 59.5q0 34 -18.5 58.5t-44.5 24.5t-44.5 -24
t-18.5 -59z" />
    <glyph glyph-name="guillemotright" unicode="&#xbb;" 
d="M270 209l1 -2l-39 -36h-3l-189 -170v78l151 136l-151 166v81l192 -210zM407 209l1 -2l-39 -36h-3l-189 -170v78l151 136l-151 166v81l192 -210z" />
    <glyph glyph-name="onequarter" unicode="&#xbc;" horiz-adv-x="508" 
d="M192 6h-50l158 694h48zM249 53q-1 1 -1 2l100 291h41l-80 -242h87v179h37v-179h35v-51h-36v-56h-36v56h-147zM116 398l-1 248q-16 -8 -23 -20.5t-11 -29.5h-41q0 13 5 28t14 29t20 25t23 16l9 4q3 0 5 2h39v-302h42v-49h-157v49h76z" />
    <glyph glyph-name="onehalf" unicode="&#xbd;" horiz-adv-x="526" 
d="M195 6h-51l158 694h48zM442 198q6 10 6 29q0 12 -3.5 24t-9.5 22.5t-15.5 17t-21.5 6.5h-13q-19 0 -30.5 -17t-16.5 -36h-38q0 23 9 42t22.5 32.5t29.5 21t31 7.5q19 0 36 -9t30 -25t20.5 -38t7.5 -47q-1 -13 -2 -23.5t-9.5 -28.5t-28.5 -47.5t-59 -80.5h96v-49h-183l2 2
zM116 395l-1 248q-16 -8 -23 -20t-11 -29l-41 -1q0 13 5 28t13.5 29t20 25.5t23.5 16.5l9 3q3 0 5 2h39v-302h42v-49h-157v49h76z" />
    <glyph glyph-name="threequarters" unicode="&#xbe;" horiz-adv-x="539" 
d="M222 6h-50l158 694h48zM281 56l-1 3l101 290h40l-81 -243h88v180h37v-180h34v-50h-35v-56h-36v56h-147zM78 451q5 -23 20 -37.5t32 -14.5q23 0 39.5 21.5t16.5 51.5q0 23 -10.5 42.5t-26.5 26.5l-19 5v48l35 -8q2 2 2 7v9q0 21 -10.5 34.5t-26.5 13.5q-12 0 -21.5 -9.5
t-13.5 -25.5l-2 -17h-36v5q0 20 6 38t16 31t23 20.5t28 7.5q32 0 53 -28t21 -70q0 -31 -7 -44q10 -15 17.5 -35t7.5 -40v-22q0 -20 -7.5 -40t-19 -35.5t-26.5 -25.5t-30 -10h-16q-15 0 -29 8.5t-25.5 22.5t-19 32t-9.5 37v1h38z" />
    <glyph glyph-name="questiondown" unicode="&#xbf;" horiz-adv-x="450" 
d="M222 400q-23 0 -42 -14t-33 -35.5t-22 -48.5t-8 -53q0 -31 9.5 -58.5t25.5 -48t37 -32.5t45 -12q52 0 86 49l90 -1q0 -1 -3 -8l-4 -11q-27 -63 -72 -96.5t-99 -33.5q-40 0 -75 20t-61 54.5t-41 80.5t-15 98q0 49 13 91t36.5 75t55.5 54.5t71 29.5q3 0 3 5v47h78v-152h-75
zM219 598v101h78v-101h-78z" />
    <glyph glyph-name="Agrave" unicode="&#xc0;" horiz-adv-x="496" 
d="M41 481q2 46 19.5 86t46 69.5t65 46t77.5 16.5q38 0 75 -18.5t66.5 -50t47.5 -74.5t18 -91v-462h-81v392h-252v-396h-83zM249 599q-42 0 -76 -29t-44 -77h239q-10 48 -43.5 77t-75.5 29zM324 780l-32 -52l-120 132l32 52z" />
    <glyph glyph-name="Aacute" unicode="&#xc1;" horiz-adv-x="496" 
d="M41 481q2 46 19.5 86t46 69.5t65 46t77.5 16.5q38 0 75 -18.5t66.5 -50t47.5 -74.5t18 -91v-462h-81v392h-252v-396h-83zM249 599q-42 0 -76 -29t-44 -77h239q-10 48 -43.5 77t-75.5 29zM293 912l31 -52l-120 -132l-32 52z" />
    <glyph glyph-name="Acircumflex" unicode="&#xc2;" horiz-adv-x="496" 
d="M41 481q2 46 19.5 86t46 69.5t65 46t77.5 16.5q38 0 75 -18.5t66.5 -50t47.5 -74.5t18 -91v-462h-81v392h-252v-396h-83zM249 599q-42 0 -76 -29t-44 -77h239q-10 48 -43.5 77t-75.5 29zM252 910l120 -181h-70l-50 84l-60 -84h-69z" />
    <glyph glyph-name="Atilde" unicode="&#xc3;" horiz-adv-x="496" 
d="M41 481q2 46 19.5 86t46 69.5t65 46t77.5 16.5q38 0 75 -18.5t66.5 -50t47.5 -74.5t18 -91v-462h-81v392h-252v-396h-83zM249 599q-42 0 -76 -29t-44 -77h239q-10 48 -43.5 77t-75.5 29z" />
    <glyph glyph-name="Adieresis" unicode="&#xc4;" horiz-adv-x="496" 
d="M41 481q2 46 19.5 86t46 69.5t65 46t77.5 16.5q38 0 75 -18.5t66.5 -50t47.5 -74.5t18 -91v-462h-81v392h-252v-396h-83zM249 599q-42 0 -76 -29t-44 -77h239q-10 48 -43.5 77t-75.5 29zM353 807v-78h-59v78h59zM202 807v-78h-58v78h58z" />
    <glyph glyph-name="Aring" unicode="&#xc5;" horiz-adv-x="496" 
d="M41 481q2 46 19.5 86t46 69.5t65 46t77.5 16.5q38 0 75 -18.5t66.5 -50t47.5 -74.5t18 -91v-462h-81v392h-252v-396h-83zM168 836q0 22 6 41.5t17 34.5t25.5 23.5t31.5 8.5q16 0 31 -8.5t26 -23.5t17.5 -34.5t6.5 -41.5t-6.5 -41.5t-17.5 -34t-26 -23t-31 -8.5
q-17 0 -31.5 8.5t-25.5 23t-17 34t-6 41.5zM249 599q-42 0 -76 -29t-44 -77h239q-10 48 -43.5 77t-75.5 29zM200 836q0 -26 14 -44.5t34 -18.5t34 18.5t14 44.5t-13.5 45t-33.5 19q-21 0 -35 -18.5t-14 -45.5z" />
    <glyph glyph-name="AE" unicode="&#xc6;" horiz-adv-x="795" 
d="M41 481q2 46 19.5 86t46 69.5t65 46t77.5 16.5q29 0 56.5 -9.5t51.5 -27.5t44 -43t33 -55q39 64 97.5 102t128.5 38q43 0 84 -15h1q2 -1 5 -2t4 -1v-124q-43 27 -87 27q-52 0 -97 -24.5t-69 -73.5h155v-107h-183q-1 -9 -1.5 -18t-0.5 -18q0 -48 17.5 -90t45.5 -73.5
t63 -49.5t70 -18q22 0 45 5.5t43 19.5v-122q0 -3 -11 -6.5t-26.5 -6.5t-31.5 -5t-26 -2q-60 0 -112.5 28.5t-91.5 79.5v-105h-81v392h-252v-396h-83zM249 599q-42 0 -76 -29t-44 -77h239q-10 48 -43.5 77t-75.5 29z" />
    <glyph glyph-name="Ccedilla" unicode="&#xc7;" horiz-adv-x="451" 
d="M339 1v-33q18 -11 30 -33.5t12 -51.5q0 -39 -20.5 -66t-49.5 -27h-5q-2 0 -4 0.5t-4 0.5l-1 39h1q4 -3 13 -3q17 0 29 16t12 39q0 24 -12 40t-29 16q-3 0 -6 -0.5t-7 -1.5l-1 38h1q1 1 4 1h7v26q-56 2 -105 30.5t-85.5 75.5t-57.5 110t-21 134q0 73 22 136.5t59.5 111
t88.5 75t109 27.5q26 0 77 -14q4 0 9 -2.5t6 -2.5v-123q-40 25 -85 25q-38 0 -72 -18.5t-59.5 -50t-40 -74t-14.5 -90.5q0 -50 14.5 -92.5t40 -74t59.5 -49t74 -17.5q46 0 83 25v-123q-3 0 -10.5 -2.5t-17.5 -6t-22 -6.5t-22 -4z" />
    <glyph glyph-name="Egrave" unicode="&#xc8;" horiz-adv-x="454" 
d="M40 349q0 72 22 136t60.5 111.5t89.5 75t109 27.5q21 0 42 -4t41 -11h1q1 -2 4 -3t4 -1l1 -122q-21 12 -42.5 19t-44.5 7q-50 0 -95.5 -24t-68.5 -73h153v-106h-181q-1 -9 -1.5 -18t-0.5 -17q0 -48 17.5 -90t45 -73t62 -49t69.5 -18q21 0 44 5.5t43 19.5v-121
q0 -3 -11 -6.5t-26 -6.5t-31 -5t-25 -2q-58 0 -109 27.5t-89.5 75t-60.5 111t-22 135.5zM303 780l-33 -52l-120 132l33 52z" />
    <glyph glyph-name="Eacute" unicode="&#xc9;" horiz-adv-x="454" 
d="M40 349q0 72 22 136t60.5 111.5t89.5 75t109 27.5q21 0 42 -4t41 -11h1q1 -2 4 -3t4 -1l1 -122q-21 12 -42.5 19t-44.5 7q-50 0 -95.5 -24t-68.5 -73h153v-106h-181q-1 -9 -1.5 -18t-0.5 -17q0 -48 17.5 -90t45 -73t62 -49t69.5 -18q21 0 44 5.5t43 19.5v-121
q0 -3 -11 -6.5t-26 -6.5t-31 -5t-25 -2q-58 0 -109 27.5t-89.5 75t-60.5 111t-22 135.5zM271 912l32 -52l-120 -132l-33 52z" />
    <glyph glyph-name="Ecircumflex" unicode="&#xca;" horiz-adv-x="454" 
d="M40 349q0 72 22 136t60.5 111.5t89.5 75t109 27.5q21 0 42 -4t41 -11h1q1 -2 4 -3t4 -1l1 -122q-21 12 -42.5 19t-44.5 7q-50 0 -95.5 -24t-68.5 -73h153v-106h-181q-1 -9 -1.5 -18t-0.5 -17q0 -48 17.5 -90t45 -73t62 -49t69.5 -18q21 0 44 5.5t43 19.5v-121
q0 -3 -11 -6.5t-26 -6.5t-31 -5t-25 -2q-58 0 -109 27.5t-89.5 75t-60.5 111t-22 135.5zM231 910l120 -181h-70l-50 84l-60 -84h-69z" />
    <glyph glyph-name="Edieresis" unicode="&#xcb;" horiz-adv-x="454" 
d="M40 349q0 72 22 136t60.5 111.5t89.5 75t109 27.5q21 0 42 -4t41 -11h1q1 -2 4 -3t4 -1l1 -122q-21 12 -42.5 19t-44.5 7q-50 0 -95.5 -24t-68.5 -73h153v-106h-181q-1 -9 -1.5 -18t-0.5 -17q0 -48 17.5 -90t45 -73t62 -49t69.5 -18q21 0 44 5.5t43 19.5v-121
q0 -3 -11 -6.5t-26 -6.5t-31 -5t-25 -2q-58 0 -109 27.5t-89.5 75t-60.5 111t-22 135.5zM180 807v-78h-58v78h58zM331 807v-78h-58v78h58z" />
    <glyph glyph-name="Igrave" unicode="&#xcc;" horiz-adv-x="232" 
d="M157 696v-696h-83v696h83zM192 780l-32 -52l-120 132l31 52z" />
    <glyph glyph-name="Iacute" unicode="&#xcd;" horiz-adv-x="232" 
d="M157 696v-696h-83v696h83zM160 912l32 -52l-120 -132l-32 52z" />
    <glyph glyph-name="Icircumflex" unicode="&#xce;" horiz-adv-x="329" 
d="M206 696v-696h-83v696h83zM168 910l121 -181h-71l-50 84l-59 -84h-69z" />
    <glyph glyph-name="Idieresis" unicode="&#xcf;" horiz-adv-x="289" 
d="M186 696v-696h-83v696h83zM99 807v-78h-59v78h59zM249 807v-78h-57v78h57z" />
    <glyph glyph-name="Eth" unicode="&#xd0;" horiz-adv-x="605" 
d="M40 278v137h83v275h90v-63q29 31 62 48.5t69 17.5q46 0 86.5 -27t70.5 -74.5t47 -110.5t17 -135q0 -71 -17.5 -133.5t-47.5 -109t-70 -73.5t-86 -27q-71 0 -131 66v-69h-90v278h-83zM220 278q0 -2 1.5 -5t1.5 -4q18 -58 48 -92t73 -34q27 0 51 16t42 43.5t28 65t10 80.5
q0 42 -10 79.5t-28 65.5t-42 44t-51 16q-20 0 -39.5 -10t-36.5 -28t-29.5 -43.5t-18.5 -56.5h84v-137h-84z" />
    <glyph glyph-name="Ntilde" unicode="&#xd1;" horiz-adv-x="499" 
d="M40 697h86l249 -498v500h84v-698h-81l-1 2q-2 3 -7 12.5t-15.5 30.5t-28 56.5t-44.5 90t-65.5 131t-90.5 180.5l-1 1v-504h-83zM252 807q39 -36 57 -36q14 0 20.5 18.5t6.5 45.5l30 -8q-1 -45 -15.5 -74t-40.5 -29q-11 0 -28.5 11.5t-35.5 25t-33.5 25t-22.5 11.5
q-14 0 -20.5 -19t-7.5 -45l-30 8q2 42 17 72t39 30q26 0 64 -36z" />
    <glyph glyph-name="Ograve" unicode="&#xd2;" horiz-adv-x="604" 
d="M40 349q0 73 20.5 137t56.5 111t84 74t102 27t101.5 -27.5t83 -75t56 -111t20.5 -135.5t-21 -135.5t-56.5 -110.5t-83 -74.5t-101.5 -27.5t-101.5 27.5t-83.5 74.5t-56.5 110.5t-20.5 135.5zM127 349q0 -48 14 -90.5t37.5 -73.5t55.5 -49t68 -18q37 0 69 18t55.5 49.5
t37 74t13.5 91.5q0 48 -14 90t-37.5 73.5t-55.5 49.5t-68 18t-68 -18.5t-55.5 -50t-37.5 -74t-14 -90.5zM378 780l-33 -52l-120 132l33 52z" />
    <glyph glyph-name="Oacute" unicode="&#xd3;" horiz-adv-x="604" 
d="M40 349q0 73 20.5 137t56.5 111t84 74t102 27t101.5 -27.5t83 -75t56 -111t20.5 -135.5t-21 -135.5t-56.5 -110.5t-83 -74.5t-101.5 -27.5t-101.5 27.5t-83.5 74.5t-56.5 110.5t-20.5 135.5zM127 349q0 -48 14 -90.5t37.5 -73.5t55.5 -49t68 -18q37 0 69 18t55.5 49.5
t37 74t13.5 91.5q0 48 -14 90t-37.5 73.5t-55.5 49.5t-68 18t-68 -18.5t-55.5 -50t-37.5 -74t-14 -90.5zM346 912l32 -52l-120 -132l-33 52z" />
    <glyph glyph-name="Ocircumflex" unicode="&#xd4;" horiz-adv-x="604" 
d="M40 349q0 73 20.5 137t56.5 111t84 74t102 27t101.5 -27.5t83 -75t56 -111t20.5 -135.5t-21 -135.5t-56.5 -110.5t-83 -74.5t-101.5 -27.5t-101.5 27.5t-83.5 74.5t-56.5 110.5t-20.5 135.5zM127 349q0 -48 14 -90.5t37.5 -73.5t55.5 -49t68 -18q37 0 69 18t55.5 49.5
t37 74t13.5 91.5q0 48 -14 90t-37.5 73.5t-55.5 49.5t-68 18t-68 -18.5t-55.5 -50t-37.5 -74t-14 -90.5zM305 910l121 -181h-70l-51 84l-59 -84h-69z" />
    <glyph glyph-name="Otilde" unicode="&#xd5;" horiz-adv-x="604" 
d="M40 349q0 73 20.5 137t56.5 111t84 74t102 27t101.5 -27.5t83 -75t56 -111t20.5 -135.5t-21 -135.5t-56.5 -111t-83 -74.5t-101.5 -27t-101.5 27.5t-83.5 74.5t-56.5 110.5t-20.5 135.5zM127 349q0 -49 14 -91t37.5 -73t55.5 -49t68 -18q37 0 69 18t55.5 49.5t37 74
t13.5 91.5q0 48 -14 90t-37.5 73.5t-55.5 49.5t-68 18t-68 -18.5t-55.5 -50t-37.5 -74t-14 -90.5zM319 807q37 -36 56 -36q15 0 21.5 18.5t6.5 45.5l30 -8q-1 -45 -16 -74t-40 -29q-11 0 -28.5 11.5t-35.5 25t-33.5 25t-22.5 11.5q-15 0 -21 -19t-7 -45l-30 8q2 42 17 72
t39 30q26 0 64 -36z" />
    <glyph glyph-name="Odieresis" unicode="&#xd6;" horiz-adv-x="604" 
d="M40 349q0 73 20.5 137t56.5 111t84 74t102 27t101.5 -27.5t83 -75t56 -111t20.5 -135.5t-21 -135.5t-56.5 -110.5t-83 -74.5t-101.5 -27.5t-101.5 27.5t-83.5 74.5t-56.5 110.5t-20.5 135.5zM127 349q0 -48 14 -90.5t37.5 -73.5t55.5 -49t68 -18q37 0 69 18t55.5 49.5
t37 74t13.5 91.5q0 48 -14 90t-37.5 73.5t-55.5 49.5t-68 18t-68 -18.5t-55.5 -50t-37.5 -74t-14 -90.5zM407 807v-78h-59v78h59zM255 807v-78h-58v78h58z" />
    <glyph glyph-name="multiply" unicode="&#xd7;" horiz-adv-x="278" 
d="M89 78l-49 66l50 65l-50 67l50 66l49 -66l50 66l49 -66l-50 -66l50 -67l-50 -65l-50 66z" />
    <glyph glyph-name="Oslash" unicode="&#xd8;" horiz-adv-x="604" 
d="M40 351q0 72 21 135.5t56.5 111t83.5 74.5t102 27t101.5 -28t83 -75.5t56 -111.5t20.5 -136q0 -73 -21 -136t-57 -110t-84 -74t-102 -27t-101.5 28t-82.5 75.5t-55.5 111t-20.5 135.5zM127 349q0 -27 4 -51.5t13 -47.5l7 -18l239 318l-18 13q-16 11 -35 14t-36 5
q-36 0 -68 -18.5t-55.5 -50t-37 -74t-13.5 -90.5zM214 149l2 -1q17 -17 40.5 -23.5t45.5 -6.5q36 0 68 18t55.5 49.5t37.5 74t14 91.5q0 30 -6 60.5t-18 56.5z" />
    <glyph glyph-name="Ugrave" unicode="&#xd9;" horiz-adv-x="494" 
d="M40 217v484h83v-471q7 -29 17 -54t24.5 -43t34.5 -28t48 -10q21 0 43 10t40 28t29.5 42t11.5 52l1 469h82v-464q0 -49 -17.5 -92t-46.5 -75t-66.5 -50.5t-76.5 -18.5q-40 0 -75 16.5t-62.5 45.5t-45.5 70t-24 89zM324 780l-33 -52l-120 132l32 52z" />
    <glyph glyph-name="Uacute" unicode="&#xda;" horiz-adv-x="494" 
d="M40 217v484h83v-471q7 -29 17 -54t24.5 -43t34.5 -28t48 -10q21 0 43 10t40 28t29.5 42t11.5 52l1 469h82v-464q0 -49 -17.5 -92t-46.5 -75t-66.5 -50.5t-76.5 -18.5q-40 0 -75 16.5t-62.5 45.5t-45.5 70t-24 89zM291 912l33 -52l-120 -132l-33 52z" />
    <glyph glyph-name="Ucircumflex" unicode="&#xdb;" horiz-adv-x="494" 
d="M40 217v484h83v-471q7 -29 17 -54t24.5 -43t34.5 -28t48 -10q21 0 43 10t40 28t29.5 42t11.5 52l1 469h82v-464q0 -49 -17.5 -92t-46.5 -75t-66.5 -50.5t-76.5 -18.5q-40 0 -75 16.5t-62.5 45.5t-45.5 70t-24 89zM251 910l121 -181h-71l-50 84l-59 -84h-69z" />
    <glyph glyph-name="Udieresis" unicode="&#xdc;" horiz-adv-x="494" 
d="M40 217v484h83v-471q7 -29 17 -54t24.5 -43t34.5 -28t48 -10q21 0 43 10t40 28t29.5 42t11.5 52l1 469h82v-464q0 -49 -17.5 -92t-46.5 -75t-66.5 -50.5t-76.5 -18.5q-40 0 -75 16.5t-62.5 45.5t-45.5 70t-24 89zM352 807v-78h-58v78h58zM201 807v-78h-59v78h59z" />
    <glyph glyph-name="Yacute" unicode="&#xdd;" horiz-adv-x="499" 
d="M192 219l-27 11l-23 14l-26 21q-44 41 -62 102l-6 21q-5 16 -6.5 31t-1.5 32l2 246h81l2 -267q3 -19 9 -36.5t18 -31.5l19 -23q9 -8 22.5 -16t41.5 -15h30l17 3q13 4 25 11.5t23 16.5l12 14q16 20 25.5 47.5t9.5 53.5l1 243h81v-260q-1 -13 -2.5 -25.5t-4.5 -23.5v-1
q-34 -127 -145 -168l-7 -3v-215h-100v215q0 2 -2.5 2t-5.5 1zM294 912l32 -52l-120 -132l-32 52z" />
    <glyph glyph-name="Thorn" unicode="&#xde;" horiz-adv-x="399" 
d="M122 699v-109h7q2 0 3 1h44q34 0 66.5 -22t58.5 -55.5t42 -74t16 -76.5v-44q0 -2 -1 -11.5t-2 -14.5q-8 -44 -27 -81.5t-45.5 -64.5t-60 -42t-70.5 -15q-9 0 -15.5 1t-12.5 1h-3v-92h-82v699h82zM154 489h-7q-6 0 -15.5 -1t-9.5 -4v-287q8 -3 15.5 -3.5t16.5 -0.5
q24 0 46 11.5t38.5 32t26.5 47.5t10 57t-10 57t-26.5 47t-38.5 32t-46 12z" />
    <glyph glyph-name="germandbls" unicode="&#xdf;" horiz-adv-x="451" 
d="M191 76q16 -6 37 -6q22 0 42 8t34.5 22.5t23 33.5t8.5 40t-8.5 40t-23.5 33t-35 22t-43 8q-10 0 -18.5 -1t-18.5 -4v123q0 11 -12.5 19.5t-25.5 8.5q-11 0 -24 -8.5t-13 -19.5v-394h-74v490h74v-6q19 6 37 6q22 0 42.5 -8t35.5 -22t24 -32.5t9 -39.5q0 -11 -3.5 -26.5
t-6.5 -18.5q63 -11 104 -48t52 -97q1 -2 2 -8.5t1 -8.5v-10q0 -35 -15 -66.5t-40 -54.5t-59 -36.5t-71 -13.5h-11q-5 0 -13.5 1t-12.5 2z" />
    <glyph glyph-name="agrave" unicode="&#xe0;" horiz-adv-x="451" 
d="M336 47q-51 -48 -111 -48q-39 0 -73 19.5t-58.5 53t-39 79t-14.5 97.5t14.5 96.5t40 77.5t59.5 52t72 19q60 0 110 -48v46h75v-494h-75v50zM114 246q0 -30 9 -57t24 -47.5t35 -32t43 -11.5q22 0 42.5 11.5t35.5 32t24 47.5t9 57t-9 57.5t-24 47.5t-35.5 32t-42.5 12
q-23 0 -43 -12t-35 -32t-24 -47.5t-9 -57.5zM302 570l-33 -52l-120 132l32 52z" />
    <glyph glyph-name="aacute" unicode="&#xe1;" horiz-adv-x="451" 
d="M336 47q-51 -48 -111 -48q-39 0 -73 19.5t-58.5 53t-39 79t-14.5 97.5t14.5 96.5t40 77.5t59.5 52t72 19q60 0 110 -48v46h75v-494h-75v50zM114 246q0 -30 9 -57t24 -47.5t35 -32t43 -11.5q22 0 42.5 11.5t35.5 32t24 47.5t9 57t-9 57.5t-24 47.5t-35.5 32t-42.5 12
q-23 0 -43 -12t-35 -32t-24 -47.5t-9 -57.5zM270 702l32 -52l-121 -132l-32 52z" />
    <glyph glyph-name="acircumflex" unicode="&#xe2;" horiz-adv-x="451" 
d="M336 47q-51 -48 -111 -48q-39 0 -73 19.5t-58.5 53t-39 79t-14.5 97.5t14.5 96.5t40 77.5t59.5 52t72 19q60 0 110 -48v46h75v-494h-75v50zM114 246q0 -30 9 -57t24 -47.5t35 -32t43 -11.5q22 0 42.5 11.5t35.5 32t24 47.5t9 57t-9 57.5t-24 47.5t-35.5 32t-42.5 12
q-23 0 -43 -12t-35 -32t-24 -47.5t-9 -57.5zM229 700l121 -181h-71l-50 84l-59 -84h-69z" />
    <glyph glyph-name="atilde" unicode="&#xe3;" horiz-adv-x="451" 
d="M336 47q-50 -48 -111 -48q-39 0 -73 19.5t-58.5 53.5t-39 79.5t-14.5 96.5q0 52 14.5 96.5t40 77.5t59.5 52t72 19q60 0 110 -48v46h75v-494h-75v50zM114 246q0 -30 9 -57t24 -47t35 -32t43 -12q22 0 42.5 12t35.5 32t24 47t9 57t-9 57t-24 47.5t-35.5 32.5t-42.5 12
q-23 0 -43 -12t-35 -32.5t-24 -47.5t-9 -57zM243 597q37 -36 57 -36q14 0 20.5 18.5t6.5 45.5l30 -8q-1 -45 -16 -74t-40 -29q-11 0 -28.5 11.5t-35.5 25t-33.5 25t-22.5 11.5q-15 0 -21 -19t-7 -45l-30 8q0 42 16 72t40 30q25 0 64 -36z" />
    <glyph glyph-name="adieresis" unicode="&#xe4;" horiz-adv-x="451" 
d="M336 47q-51 -48 -111 -48q-39 0 -73 19.5t-58.5 53t-39 79t-14.5 97.5t14.5 96.5t40 77.5t59.5 52t72 19q60 0 110 -48v46h75v-494h-75v50zM114 246q0 -30 9 -57t24 -47.5t35 -32t43 -11.5q22 0 42.5 11.5t35.5 32t24 47.5t9 57t-9 57.5t-24 47.5t-35.5 32t-42.5 12
q-23 0 -43 -12t-35 -32t-24 -47.5t-9 -57.5zM179 597v-78h-59v78h59zM330 597v-78h-58v78h58z" />
    <glyph glyph-name="aring" unicode="&#xe5;" horiz-adv-x="451" 
d="M336 47q-51 -48 -111 -48q-39 0 -73 19.5t-58.5 53t-39 79t-14.5 97.5t14.5 96.5t40 77.5t59.5 52t72 19q60 0 110 -48v46h75v-494h-75v50zM114 246q0 -30 9 -57t24 -47.5t35 -32t43 -11.5q22 0 42.5 11.5t35.5 32t24 47.5t9 57t-9 57.5t-24 47.5t-35.5 32t-42.5 12
q-23 0 -43 -12t-35 -32t-24 -47.5t-9 -57.5zM144 626q0 22 6.5 41.5t17.5 34.5t25.5 23.5t31.5 8.5q16 0 31 -8.5t26 -23.5t17.5 -34.5t6.5 -41.5t-6.5 -41.5t-17.5 -34t-26 -23t-31 -8.5q-17 0 -31.5 8.5t-25.5 23t-17.5 34t-6.5 41.5zM177 626q0 -26 14 -44.5t34 -18.5
t34 18.5t14 44.5t-13.5 45t-34.5 19q-20 0 -34 -18.5t-14 -45.5z" />
    <glyph glyph-name="ae" unicode="&#xe6;" horiz-adv-x="747" 
d="M336 47q-51 -48 -111 -48q-39 0 -73 19.5t-58.5 53t-39 79t-14.5 97.5t14.5 96.5t40 77.5t59.5 52t72 19q60 0 110 -48v46h75v-51q23 23 52 37t61 14q38 0 71.5 -19.5t58 -52.5t39 -77.5t14.5 -95.5v-18q0 -7 -1.5 -20t-2.5 -13h-283q3 -21 13.5 -39t25.5 -30.5t32 -19.5
t32 -7q8 0 19.5 1.5t14.5 5.5h2v-102q-2 -1 -11.5 -2t-13.5 -1q-36 0 -66.5 11.5t-56.5 38.5v-54h-75v50zM114 246q0 -30 9 -57t24 -47.5t35 -32t43 -11.5q22 0 42.5 11.5t35.5 32t24 47.5t9 57t-9 57.5t-24 47.5t-35.5 32t-42.5 12q-23 0 -43 -12t-35 -32t-24 -47.5
t-9 -57.5zM523 393q-33 0 -63.5 -28t-40.5 -72h208q-9 45 -39 72.5t-65 27.5z" />
    <glyph glyph-name="ccedilla" unicode="&#xe7;" horiz-adv-x="301" 
d="M217 0v-27q19 -11 30.5 -33.5t11.5 -50.5q0 -39 -20 -66t-50 -27h-5q-1 0 -4 0.5t-4 0.5v38q4 -1 7 -1.5t6 -0.5q18 0 30 16t12 39t-12 39.5t-30 16.5q-6 0 -13 -3v39q1 0 4 0.5t4 0.5h3v24q-32 8 -58.5 30t-46.5 54t-31 72t-11 85q0 51 14.5 95.5t39.5 78t58.5 52.5
t72.5 19h14q4 0 11 -1.5t10 -2.5l1 -102h-2q-9 3 -17 5t-17 2q-23 0 -43 -11.5t-35 -31.5t-24 -47t-9 -58q0 -30 9 -56.5t24 -46t35 -31t43 -11.5q9 0 17 2t17 5h2l-1 -102q-3 -1 -10 -2.5t-11 -1.5h-22zM217 0v7h-30v-2q8 -2 15 -3t15 -2z" />
    <glyph glyph-name="egrave" unicode="&#xe8;" 
d="M40 248q0 51 14.5 95.5t39.5 77t59 51.5t72 19t71.5 -19.5t58 -52.5t39 -77.5t14.5 -95.5v-18q0 -7 -1.5 -20t-2.5 -13h-284q4 -21 15 -39t25.5 -30.5t31 -19.5t32.5 -7q7 0 19 1.5t15 5.5h2v-102q-2 -1 -11.5 -2t-14.5 -1h-11q-39 0 -72.5 19.5t-58 53t-38.5 78.5
t-14 96zM224 393q-34 0 -64 -27.5t-40 -72.5h208q-10 45 -40 72.5t-64 27.5zM300 570l-33 -52l-120 132l32 52z" />
    <glyph glyph-name="eacute" unicode="&#xe9;" 
d="M40 248q0 51 14.5 95.5t39.5 77t59 51.5t72 19t71.5 -19.5t58 -52.5t39 -77.5t14.5 -95.5v-18q0 -7 -1.5 -20t-2.5 -13h-284q4 -21 15 -39t25.5 -30.5t31 -19.5t32.5 -7q7 0 19 1.5t15 5.5h2v-102q-2 -1 -11.5 -2t-14.5 -1h-11q-39 0 -72.5 19.5t-58 53t-38.5 78.5
t-14 96zM224 393q-34 0 -64 -27.5t-40 -72.5h208q-10 45 -40 72.5t-64 27.5zM268 702l32 -52l-120 -132l-33 52z" />
    <glyph glyph-name="ecircumflex" unicode="&#xea;" 
d="M40 248q0 51 14.5 95.5t39.5 77t59 51.5t72 19t71.5 -19.5t58 -52.5t39 -77.5t14.5 -95.5v-18q0 -7 -1.5 -20t-2.5 -13h-284q4 -21 15 -39t25.5 -30.5t31 -19.5t32.5 -7q7 0 19 1.5t15 5.5h2v-102q-2 -1 -11.5 -2t-14.5 -1h-11q-39 0 -72.5 19.5t-58 53t-38.5 78.5
t-14 96zM228 700l120 -181h-70l-50 84l-60 -84h-69zM224 393q-34 0 -64 -27.5t-40 -72.5h208q-10 45 -40 72.5t-64 27.5z" />
    <glyph glyph-name="edieresis" unicode="&#xeb;" 
d="M40 248q0 51 14.5 95.5t39.5 77t59 51.5t72 19t71.5 -19.5t58 -52.5t39 -77.5t14.5 -95.5v-18q0 -7 -1.5 -20t-2.5 -13h-284q4 -21 15 -39t25.5 -30.5t31 -19.5t32.5 -7q7 0 19 1.5t15 5.5h2v-102q-2 -1 -11.5 -2t-14.5 -1h-11q-39 0 -72.5 19.5t-58 53t-38.5 78.5
t-14 96zM224 393q-34 0 -64 -27.5t-40 -72.5h208q-10 45 -40 72.5t-64 27.5zM328 597v-78h-58v78h58zM177 597v-78h-58v78h58z" />
    <glyph glyph-name="igrave" unicode="&#xec;" horiz-adv-x="233" 
d="M153 491v-490h-73v490h73zM193 570l-33 -52l-120 132l32 52z" />
    <glyph glyph-name="iacute" unicode="&#xed;" horiz-adv-x="233" 
d="M153 491v-490h-73v490h73zM161 702l32 -52l-120 -132l-33 52z" />
    <glyph glyph-name="icircumflex" unicode="&#xee;" horiz-adv-x="329" 
d="M201 491v-490h-73v490h73zM169 700l120 -181h-70l-50 84l-60 -84h-69z" />
    <glyph glyph-name="idieresis" unicode="&#xef;" horiz-adv-x="289" 
d="M181 491v-490h-73v490h73zM98 597v-78h-58v78h58zM249 597v-78h-58v78h58z" />
    <glyph glyph-name="eth" unicode="&#xf0;" horiz-adv-x="523" 
d="M333 441v76h-69v98h68v86h74v-86h77v-98h-77v-293q0 -3 -2.5 -18.5t-4.5 -24.5q-6 -40 -23 -73t-41 -57t-53 -37.5t-59 -13.5q-28 0 -55 11.5t-50.5 32.5t-40.5 50.5t-26 65.5q-3 14 -7 30t-4 30v47q0 40 15 79.5t39 71t53.5 51t58.5 19.5h33q24 0 48.5 -14t45.5 -33z
M114 244q0 -30 8.5 -56t23 -45.5t34 -30.5t42.5 -11t43 11t35 30.5t23.5 45.5t8.5 57q0 29 -8.5 55.5t-23 46t-34 31t-41.5 11.5q-23 0 -43 -11.5t-35 -31t-24 -46t-9 -56.5z" />
    <glyph glyph-name="ntilde" unicode="&#xf1;" horiz-adv-x="449" 
d="M193 389v-2l-6 -3q-14 -7 -27 -20t-23.5 -30.5t-16.5 -38t-6 -42.5v-255h-74v491h74v-45q53 47 111 47q39 0 72.5 -19.5t58.5 -53.5t39 -79.5t14 -97.5v-243h-73l-1 255q-1 30 -10.5 55.5t-24.5 44t-34.5 29.5t-40.5 11q-25 0 -32 -4zM242 597q37 -36 56 -36
q14 0 21 18.5t7 45.5l30 -8q-2 -45 -16.5 -74t-39.5 -29q-11 0 -28.5 11.5t-35.5 25t-33.5 25t-22.5 11.5q-15 0 -21 -19t-7 -45l-30 8q1 42 16 72t39 30q27 0 65 -36z" />
    <glyph glyph-name="ograve" unicode="&#xf2;" horiz-adv-x="452" 
d="M40 248q0 51 14.5 96t40 79t59 53.5t71.5 19.5q39 0 73 -19.5t59.5 -53.5t40 -79.5t14.5 -96.5t-14.5 -96t-40 -78.5t-59.5 -53t-73 -19.5q-38 0 -71.5 19.5t-59 53.5t-40 79t-14.5 96zM116 248q0 -31 8.5 -57.5t23.5 -46.5t35 -31.5t43 -11.5t43 11.5t35 31.5t23.5 46.5
t8.5 57.5q0 30 -8.5 57t-23.5 47t-35 31.5t-43 11.5t-43 -11.5t-35 -31.5t-23.5 -46.5t-8.5 -57.5zM302 570l-32 -52l-120 132l31 52z" />
    <glyph glyph-name="oacute" unicode="&#xf3;" horiz-adv-x="452" 
d="M40 248q0 51 14.5 96t40 79t59 53.5t71.5 19.5q39 0 73 -19.5t59.5 -53.5t40 -79.5t14.5 -96.5t-14.5 -96t-40 -78.5t-59.5 -53t-73 -19.5q-38 0 -71.5 19.5t-59 53.5t-40 79t-14.5 96zM116 248q0 -31 8.5 -57.5t23.5 -46.5t35 -31.5t43 -11.5t43 11.5t35 31.5t23.5 46.5
t8.5 57.5q0 30 -8.5 57t-23.5 47t-35 31.5t-43 11.5t-43 -11.5t-35 -31.5t-23.5 -46.5t-8.5 -57.5zM270 702l32 -52l-120 -132l-32 52z" />
    <glyph glyph-name="ocircumflex" unicode="&#xf4;" horiz-adv-x="452" 
d="M40 248q0 51 14.5 96t40 79t59 53.5t71.5 19.5q39 0 73 -19.5t59.5 -53.5t40 -79.5t14.5 -96.5t-14.5 -96t-40 -78.5t-59.5 -53t-73 -19.5q-38 0 -71.5 19.5t-59 53.5t-40 79t-14.5 96zM116 248q0 -31 8.5 -57.5t23.5 -46.5t35 -31.5t43 -11.5t43 11.5t35 31.5t23.5 46.5
t8.5 57.5q0 30 -8.5 57t-23.5 47t-35 31.5t-43 11.5t-43 -11.5t-35 -31.5t-23.5 -46.5t-8.5 -57.5zM230 700l121 -181h-71l-50 84l-59 -84h-69z" />
    <glyph glyph-name="otilde" unicode="&#xf5;" horiz-adv-x="452" 
d="M40 248q0 51 14.5 96t40 78.5t59 53.5t71.5 20q39 0 73 -20t59.5 -53.5t40 -79t14.5 -96.5t-15 -96t-40.5 -78.5t-59.5 -53t-72 -19.5t-71.5 19.5t-59 53.5t-40 79t-14.5 96zM116 248q0 -30 8 -57t23 -47t35 -31.5t44 -11.5q23 0 43 11.5t35 31.5t23.5 46.5t8.5 57.5
q0 30 -8.5 57t-23.5 47t-35 31.5t-43 11.5t-43 -11.5t-35 -31.5t-23.5 -46.5t-8.5 -57.5zM228 597q39 -36 57 -36q15 0 21.5 18.5t6.5 45.5l30 -8q-1 -45 -16 -74t-40 -29q-11 0 -29 11.5t-36 25t-33 25t-22 11.5q-15 0 -21 -19t-7 -45l-30 8q0 42 16 72t40 30q25 0 63 -36z
" />
    <glyph glyph-name="odieresis" unicode="&#xf6;" horiz-adv-x="452" 
d="M40 248q0 51 14.5 96t40 79t59 53.5t71.5 19.5q39 0 73 -19.5t59.5 -53.5t40 -79.5t14.5 -96.5t-14.5 -96t-40 -78.5t-59.5 -53t-73 -19.5q-38 0 -71.5 19.5t-59 53.5t-40 79t-14.5 96zM116 248q0 -31 8.5 -57.5t23.5 -46.5t35 -31.5t43 -11.5t43 11.5t35 31.5t23.5 46.5
t8.5 57.5q0 30 -8.5 57t-23.5 47t-35 31.5t-43 11.5t-43 -11.5t-35 -31.5t-23.5 -46.5t-8.5 -57.5zM330 597v-78h-58v78h58zM179 597v-78h-58v78h58z" />
    <glyph glyph-name="divide" unicode="&#xf7;" horiz-adv-x="312" 
d="M272 263v-101h-232v101h232zM193 99v-98h-73v98h73zM193 418v-97h-73v97h73z" />
    <glyph glyph-name="oslash" unicode="&#xf8;" 
d="M40 246q0 43 13 87t35.5 79t53 57t66.5 22h33q27 0 53 -14.5t47.5 -39t37.5 -56t23 -65.5l4 -26q1 -3 1.5 -11.5t0.5 -9.5v-45q0 -43 -15.5 -83t-39.5 -71t-54 -50t-58 -19h-33q-35 0 -65.5 21.5t-53.5 56.5t-36 78.5t-13 88.5zM114 246q0 -7 1 -17t2.5 -19.5t4 -17
t4.5 -8.5l144 195q0 3 -6 6t-14 4.5t-15.5 2.5t-9.5 1q-23 0 -43 -11.5t-35 -31.5t-24 -46.5t-9 -57.5zM179 113q0 -2 14 -7.5t23 -5.5h9q23 0 43 11.5t34.5 31t23 46.5t8.5 57v16q0 1 -1 7.5t-2.5 14.5t-3 15t-3.5 9z" />
    <glyph glyph-name="ugrave" unicode="&#xf9;" horiz-adv-x="449" 
d="M256 99v2q14 6 28.5 19t26 31t18.5 39.5t7 45.5v255h73v-491h-73l-1 45q-53 -47 -111 -47q-39 0 -72.5 19.5t-58 53.5t-39 79.5t-14.5 96.5v244h73l1 -256q1 -30 10.5 -55t25 -44t35 -29.5t40.5 -10.5q16 0 31 3zM301 570l-33 -52l-120 132l32 52z" />
    <glyph glyph-name="uacute" unicode="&#xfa;" horiz-adv-x="449" 
d="M256 99v2q14 6 28.5 19t26 31t18.5 39.5t7 45.5v255h73v-491h-73l-1 45q-53 -47 -111 -47q-39 0 -72.5 19.5t-58 53.5t-39 79.5t-14.5 96.5v244h73l1 -256q1 -30 10.5 -55t25 -44t35 -29.5t40.5 -10.5q16 0 31 3zM269 702l32 -52l-120 -132l-33 52z" />
    <glyph glyph-name="ucircumflex" unicode="&#xfb;" horiz-adv-x="449" 
d="M256 99v2q14 6 28.5 19t26 31t18.5 39.5t7 45.5v255h73v-491h-73l-1 45q-53 -47 -111 -47q-39 0 -72.5 19.5t-58 53.5t-39 79.5t-14.5 96.5v244h73l1 -256q1 -30 10.5 -55t25 -44t35 -29.5t40.5 -10.5q16 0 31 3zM228 700l121 -181h-70l-51 84l-60 -84h-68z" />
    <glyph glyph-name="udieresis" unicode="&#xfc;" horiz-adv-x="449" 
d="M256 99v2q14 6 28.5 19t26 31t18.5 39.5t7 45.5v255h73v-491h-73l-1 45q-53 -47 -111 -47q-39 0 -72.5 19.5t-58 53.5t-39 79.5t-14.5 96.5v244h73l1 -256q1 -30 10.5 -55t25 -44t35 -29.5t40.5 -10.5q16 0 31 3zM330 597v-78h-59v78h59zM178 597v-78h-58v78h58z" />
    <glyph glyph-name="yacute" unicode="&#xfd;" 
d="M187 -100l1 -1q9 -2 16.5 -4.5t17.5 -2.5q22 0 42.5 11t35.5 30t24 45.5t9 58.5v9q-34 -22 -56.5 -33.5t-51.5 -11.5q-38 0 -71.5 19t-59 51.5t-40 77t-14.5 95.5v64q0 32 0.5 68.5t0.5 68.5v46h72l1 -262q0 -20 6.5 -39.5t17.5 -36.5t25 -29.5t30 -18.5q4 -1 9 -1.5
t9 -3.5h25q17 7 30 11t27 21l10 12q16 24 22 47t10 55v245h73v-490q0 -2 -2.5 -13t-5.5 -22l-3 -12q-9 -37 -26.5 -66.5t-40.5 -50.5t-49.5 -32t-54.5 -11h-15q-5 0 -13.5 2t-10.5 2v102zM268 702l32 -52l-120 -132l-33 52z" />
    <glyph glyph-name="thorn" unicode="&#xfe;" horiz-adv-x="304" 
d="M114 699v-207h2q10 3 18 5t19 2q23 0 43.5 -11.5t35.5 -32t23.5 -48t8.5 -58.5q0 -32 -8.5 -59t-23.5 -47t-35.5 -31.5t-43.5 -11.5h-11q-5 0 -13 3t-15 3v-206h-74v699h74zM115 349q0 -20 11 -34.5t27 -14.5q15 0 25.5 14.5t10.5 34.5q0 21 -10.5 35.5t-25.5 14.5
q-16 0 -27 -14.5t-11 -35.5z" />
    <glyph glyph-name="ydieresis" unicode="&#xff;" 
d="M187 -100l1 -1q9 -2 16.5 -4.5t17.5 -2.5q22 0 42.5 11t35.5 30t24 45.5t9 58.5v9q-34 -22 -56.5 -33.5t-51.5 -11.5q-38 0 -71.5 19t-59 51.5t-40 77t-14.5 95.5v64q0 32 0.5 68.5t0.5 68.5v46h72l1 -262q0 -20 6.5 -39.5t17.5 -36.5t25 -29.5t30 -18.5q4 -1 9 -1.5
t9 -3.5h25q17 7 30 11t27 21l10 12q16 24 22 47t10 55v245h73v-490q0 -2 -2.5 -13t-5.5 -22l-3 -12q-9 -37 -26.5 -66.5t-40.5 -50.5t-49.5 -32t-54.5 -11h-15q-5 0 -13.5 2t-10.5 2v102zM328 597v-78h-58v78h58zM177 597v-78h-58v78h58z" />
    <glyph glyph-name="Amacron" unicode="&#x100;" horiz-adv-x="496" 
d="M41 481q2 46 19.5 86t46 69.5t65 46t77.5 16.5q38 0 75 -18.5t66.5 -50t47.5 -74.5t18 -91v-462h-81v392h-252v-396h-83zM249 599q-42 0 -76 -29t-44 -77h239q-10 48 -43.5 77t-75.5 29zM364 795v-65h-232v65h232z" />
    <glyph glyph-name="amacron" unicode="&#x101;" horiz-adv-x="451" 
d="M336 47q-51 -48 -111 -48q-39 0 -73 19.5t-58.5 53t-39 79t-14.5 97.5t14.5 96.5t40 77.5t59.5 52t72 19q60 0 110 -48v46h75v-494h-75v50zM114 246q0 -30 9 -57t24 -47.5t35 -32t43 -11.5q22 0 42.5 11.5t35.5 32t24 47.5t9 57t-9 57.5t-24 47.5t-35.5 32t-42.5 12
q-23 0 -43 -12t-35 -32t-24 -47.5t-9 -57.5zM331 585v-65h-232v65h232z" />
    <glyph glyph-name="Abreve" unicode="&#x102;" horiz-adv-x="496" 
d="M41 481q2 46 19.5 86t46 69.5t65 46t77.5 16.5q38 0 75 -18.5t66.5 -50t47.5 -74.5t18 -91v-462h-81v392h-252v-396h-83zM249 599q-42 0 -76 -29t-44 -77h239q-10 48 -43.5 77t-75.5 29zM247 716q-43 1 -72 41t-29 118h36q0 -51 18 -71.5t47 -20.5t48 19t19 71l36 -1
q0 -34 -8 -62.5t-21.5 -49.5t-32.5 -32.5t-41 -11.5z" />
    <glyph glyph-name="abreve" unicode="&#x103;" horiz-adv-x="451" 
d="M336 47q-51 -48 -111 -48q-39 0 -73 19.5t-58.5 53t-39 79t-14.5 97.5t14.5 96.5t40 77.5t59.5 52t72 19q60 0 110 -48v46h75v-494h-75v50zM114 246q0 -30 9 -57t24 -47.5t35 -32t43 -11.5q22 0 42.5 11.5t35.5 32t24 47.5t9 57t-9 57.5t-24 47.5t-35.5 32t-42.5 12
q-23 0 -43 -12t-35 -32t-24 -47.5t-9 -57.5zM224 505q-43 1 -72 41t-29 118h36q0 -51 18 -71.5t47 -20.5t48 19t19 71l36 -1q0 -34 -8 -62.5t-21.5 -49.5t-32.5 -32.5t-41 -11.5z" />
    <glyph glyph-name="Aogonek" unicode="&#x104;" horiz-adv-x="496" 
d="M41 481q2 46 19.5 86t46 69.5t65 46t77.5 16.5q38 0 75 -18.5t66.5 -50t47.5 -74.5t18 -91v-462h-11v-25h7q3 0 4 -1v-39q-6 3 -13 3q-17 0 -29 -16t-12 -40q0 -23 12 -39t29 -16q7 0 13 3v-39q-2 0 -4 -0.5t-4 -0.5h-5q-29 0 -49.5 27t-20.5 66q0 29 11.5 51.5
t30.5 33.5v32h-40v392h-252v-396h-83zM249 599q-42 0 -76 -29t-44 -77h239q-10 48 -43.5 77t-75.5 29z" />
    <glyph glyph-name="aogonek" unicode="&#x105;" horiz-adv-x="451" 
d="M336 47q-51 -48 -111 -48q-39 0 -73 19.5t-58.5 53t-39 79t-14.5 97.5t14.5 96.5t40 77.5t59.5 52t72 19q60 0 110 -48v46h75v-494h-12v-22h7q3 0 4 -1l1 -38h-1q-4 1 -7 1.5t-6 0.5q-17 0 -29 -16t-12 -40q0 -23 12 -39t29 -16q7 0 13 3v-39q-2 0 -4 -0.5t-4 -0.5h-5
q-29 0 -49.5 27t-20.5 66q0 29 12 51.5t30 33.5v29h-33v50zM114 246q0 -30 9 -57t24 -47.5t35 -32t43 -11.5q22 0 42.5 11.5t35.5 32t24 47.5t9 57t-9 57.5t-24 47.5t-35.5 32t-42.5 12q-23 0 -43 -12t-35 -32t-24 -47.5t-9 -57.5z" />
    <glyph glyph-name="Cacute" unicode="&#x106;" horiz-adv-x="451" 
d="M40 351q0 73 22 136.5t59.5 111t88.5 75t109 27.5q26 0 77 -14q4 0 9 -2.5t6 -2.5v-123q-40 25 -85 25q-38 0 -72 -18.5t-59.5 -50t-40 -74t-14.5 -90.5q0 -50 14.5 -92.5t40 -74t59.5 -49t74 -17.5q46 0 83 25v-123q-1 0 -6 -2.5t-9 -3.5q-26 -13 -78 -13
q-58 0 -108.5 27.5t-88 75.5t-59.5 111.5t-22 135.5zM270 881l32 -52l-120 -132l-32 53z" />
    <glyph glyph-name="cacute" unicode="&#x107;" horiz-adv-x="301" 
d="M40 246q0 51 14.5 95.5t39.5 78t58.5 52.5t72.5 19h14q4 0 11 -1.5t10 -2.5l1 -102h-2q-9 3 -17 5t-17 2q-23 0 -43 -11.5t-35 -31.5t-24 -47t-9 -58q0 -30 9 -56.5t24 -46t35 -31t43 -11.5q9 0 17 2t17 5h2l-1 -102q-3 -1 -10 -2.5t-11 -1.5h-14q-39 0 -72.5 19
t-58.5 52t-39.5 78t-14.5 97zM195 674l31 -52l-120 -132l-32 52z" />
    <glyph glyph-name="Ccircumflex" unicode="&#x108;" horiz-adv-x="451" 
d="M40 351q0 73 22 136.5t59.5 111t88.5 75t109 27.5q26 0 77 -14q4 0 9 -2.5t6 -2.5v-123q-40 25 -85 25q-38 0 -72 -18.5t-59.5 -50t-40 -74t-14.5 -90.5q0 -50 14.5 -92.5t40 -74t59.5 -49t74 -17.5q46 0 83 25v-123q-1 0 -6 -2.5t-9 -3.5q-26 -13 -78 -13
q-58 0 -108.5 27.5t-88 75.5t-59.5 111.5t-22 135.5zM299 913l121 -181h-70l-51 84l-59 -84h-69z" />
    <glyph glyph-name="ccircumflex" unicode="&#x109;" horiz-adv-x="301" 
d="M40 246q0 51 14.5 95.5t39.5 78t58.5 52.5t72.5 19h14q4 0 11 -1.5t10 -2.5l1 -102h-2q-9 3 -17 5t-17 2q-23 0 -43 -11.5t-35 -31.5t-24 -47t-9 -58q0 -30 9 -56.5t24 -46t35 -31t43 -11.5q9 0 17 2t17 5h2l-1 -102q-3 -1 -10 -2.5t-11 -1.5h-14q-39 0 -72.5 19
t-58.5 52t-39.5 78t-14.5 97zM176 700l121 -181h-70l-51 84l-59 -84h-69z" />
    <glyph glyph-name="Cdotaccent" unicode="&#x10a;" horiz-adv-x="451" 
d="M40 351q0 73 22 136.5t59.5 111t88.5 75t109 27.5q26 0 77 -14q4 0 9 -2.5t6 -2.5v-123q-40 25 -85 25q-38 0 -72 -18.5t-59.5 -50t-40 -74t-14.5 -90.5q0 -50 14.5 -92.5t40 -74t59.5 -49t74 -17.5q46 0 83 25v-123q-1 0 -6 -2.5t-9 -3.5q-26 -13 -78 -13
q-58 0 -108.5 27.5t-88 75.5t-59.5 111.5t-22 135.5zM335 828v-98h-72v98h72z" />
    <glyph glyph-name="cdotaccent" unicode="&#x10b;" horiz-adv-x="301" 
d="M40 246q0 51 14.5 95.5t39.5 78t58.5 52.5t72.5 19h14q4 0 11 -1.5t10 -2.5l1 -102h-2q-9 3 -17 5t-17 2q-23 0 -43 -11.5t-35 -31.5t-24 -47t-9 -58q0 -30 9 -56.5t24 -46t35 -31t43 -11.5q9 0 17 2t17 5h2l-1 -102q-3 -1 -10 -2.5t-11 -1.5h-14q-39 0 -72.5 19
t-58.5 52t-39.5 78t-14.5 97zM239 621v-98h-72v98h72z" />
    <glyph glyph-name="Ccaron" unicode="&#x10c;" horiz-adv-x="451" 
d="M40 351q0 73 22 136.5t59.5 111t88.5 75t109 27.5q26 0 77 -14q4 0 9 -2.5t6 -2.5v-123q-40 25 -85 25q-38 0 -72 -18.5t-59.5 -50t-40 -74t-14.5 -90.5q0 -50 14.5 -92.5t40 -74t59.5 -49t74 -17.5q46 0 83 25v-123q-1 0 -6 -2.5t-9 -3.5q-26 -13 -78 -13
q-58 0 -108.5 27.5t-88 75.5t-59.5 111.5t-22 135.5zM225 901h51l51 -97l31 97h53l-83 -184v1z" />
    <glyph glyph-name="ccaron" unicode="&#x10d;" horiz-adv-x="313" 
d="M40 246q0 51 14.5 95.5t39.5 78t58.5 52.5t72.5 19h14q4 0 11 -1.5t10 -2.5l1 -102h-2q-9 3 -17 5t-17 2q-23 0 -43 -11.5t-35 -31.5t-24 -47t-9 -58q0 -30 9 -56.5t24 -46t35 -31t43 -11.5q9 0 17 2t17 5h2l-1 -102q-3 -1 -10 -2.5t-11 -1.5h-14q-39 0 -72.5 19
t-58.5 52t-39.5 78t-14.5 97zM87 696h51l51 -96l31 96h53l-83 -183l-1 1z" />
    <glyph glyph-name="Dcaron" unicode="&#x10e;" horiz-adv-x="505" 
d="M40 -4v704h82v-27h4q39 18 81 18q54 0 101 -27t82 -74t55 -110.5t20 -135.5q0 -71 -19.5 -134.5t-54 -111t-81 -75t-100.5 -27.5q-51 0 -88 19v-19h-82zM201 112q36 0 67.5 18t54.5 49.5t36.5 74t13.5 90.5t-13 90t-36.5 73.5t-54.5 49.5t-67 18q-21 0 -67 -17
q-3 0 -7.5 -5t-5.5 -5v-411q13 -10 36.5 -17.5t42.5 -7.5zM114 890h51l51 -97l31 97h53l-83 -184l-1 1z" />
    <glyph glyph-name="dcaron" unicode="&#x10f;" horiz-adv-x="560" 
d="M334 48q-50 -48 -109 -48q-38 0 -71.5 19t-58.5 52t-40 78t-15 96q0 47 13.5 91.5t37.5 79t57 55t71 20.5q34 0 61 -12t54 -37v257h74v-698h-74v47zM334 245q0 31 -9 58t-24 46.5t-35.5 30.5t-42.5 11q-23 0 -42.5 -11.5t-34 -31.5t-23 -46.5t-8.5 -56.5t8.5 -56.5
t23 -46t34 -31t42.5 -11.5q22 0 42.5 11t35.5 30.5t24 46t9 57.5zM520 703v-96q0 -48 -18 -72.5t-43 -24.5h-9q-2 0 -2 1l-1 35h1q3 -1 5.5 -2t5.5 -1q15 0 25.5 14.5t10.5 43.5v5h-48v97h73z" />
    <glyph glyph-name="Dcroat" unicode="&#x110;" horiz-adv-x="573" 
d="M108 -4v268h-68v65h68v371h82v-27h4q39 18 81 18q54 0 101 -27t82 -74t55 -110.5t20 -135.5q0 -71 -19.5 -134.5t-54 -111t-81 -75t-100.5 -27.5q-51 0 -88 19v-19h-82zM271 329v-65h-81v-127q13 -10 36.5 -17.5t42.5 -7.5q36 0 67.5 18t54.5 49.5t36.5 74t13.5 90.5
t-13 90t-36.5 73.5t-54.5 49.5t-67 18q-21 0 -67 -17q-3 0 -7.5 -5t-5.5 -5v-219h81z" />
    <glyph glyph-name="dcroat" unicode="&#x111;" horiz-adv-x="490" 
d="M450 623v-59h-42v-563h-74v47q-50 -48 -109 -48q-38 0 -71.5 19t-58.5 52t-40 78t-15 96q0 47 13.5 91.5t37.5 79t57 55t71 20.5q34 0 61 -12t54 -37v122h-108v59h108v76h74v-76h42zM334 245q0 31 -9 58t-24 46.5t-35.5 30.5t-42.5 11q-23 0 -42.5 -11.5t-34 -31.5
t-23 -46.5t-8.5 -56.5t8.5 -56.5t23 -46t34 -31t42.5 -11.5q22 0 42.5 11t35.5 30.5t24 46t9 57.5z" />
    <glyph glyph-name="Emacron" unicode="&#x112;" horiz-adv-x="454" 
d="M40 349q0 72 22 136t60.5 111.5t89.5 75t109 27.5q21 0 42 -4t41 -11h1q1 -2 4 -3t4 -1l1 -122q-21 12 -42.5 19t-44.5 7q-50 0 -95.5 -24t-68.5 -73h153v-106h-181q-1 -9 -1.5 -18t-0.5 -17q0 -48 17.5 -90t45 -73t62 -49t69.5 -18q21 0 44 5.5t43 19.5v-121
q0 -3 -11 -6.5t-26 -6.5t-31 -5t-25 -2q-58 0 -109 27.5t-89.5 75t-60.5 111t-22 135.5zM410 792v-65h-232v65h232z" />
    <glyph glyph-name="emacron" unicode="&#x113;" 
d="M40 248q0 51 14.5 95.5t39.5 77t59 51.5t72 19t71.5 -19.5t58 -52.5t39 -77.5t14.5 -95.5v-18q0 -7 -1.5 -20t-2.5 -13h-284q4 -21 15 -39t25.5 -30.5t31 -19.5t32.5 -7q7 0 19 1.5t15 5.5h2v-102q-2 -1 -11.5 -2t-14.5 -1h-11q-39 0 -72.5 19.5t-58 53t-38.5 78.5
t-14 96zM224 393q-34 0 -64 -27.5t-40 -72.5h208q-10 45 -40 72.5t-64 27.5zM340 585v-65h-232v65h232z" />
    <glyph glyph-name="Edotaccent" unicode="&#x116;" horiz-adv-x="454" 
d="M40 349q0 72 22 136t60.5 111.5t89.5 75t109 27.5q21 0 42 -4t41 -11h1q1 -2 4 -3t4 -1l1 -122q-21 12 -42.5 19t-44.5 7q-50 0 -95.5 -24t-68.5 -73h153v-106h-181q-1 -9 -1.5 -18t-0.5 -17q0 -48 17.5 -90t45 -73t62 -49t69.5 -18q21 0 44 5.5t43 19.5v-121
q0 -3 -11 -6.5t-26 -6.5t-31 -5t-25 -2q-58 0 -109 27.5t-89.5 75t-60.5 111t-22 135.5zM339 827v-98h-73v98h73z" />
    <glyph glyph-name="edotaccent" unicode="&#x117;" 
d="M40 248q0 51 14.5 95.5t39.5 77t59 51.5t72 19t71.5 -19.5t58 -52.5t39 -77.5t14.5 -95.5v-18q0 -7 -1.5 -20t-2.5 -13h-284q4 -21 15 -39t25.5 -30.5t31 -19.5t32.5 -7q7 0 19 1.5t15 5.5h2v-102q-2 -1 -11.5 -2t-14.5 -1h-11q-39 0 -72.5 19.5t-58 53t-38.5 78.5
t-14 96zM224 393q-34 0 -64 -27.5t-40 -72.5h208q-10 45 -40 72.5t-64 27.5zM260 617v-98h-73v98h73z" />
    <glyph glyph-name="Eogonek" unicode="&#x118;" horiz-adv-x="456" 
d="M40 349q0 72 22 136t60.5 111.5t89.5 75t109 27.5q21 0 42 -4t41 -11h1q1 -2 4 -3t4 -1l1 -122q-21 12 -42.5 19t-44.5 7q-50 0 -95.5 -24t-68.5 -73h153v-106h-181q-1 -9 -1.5 -18t-0.5 -17q0 -48 17.5 -90t45 -73t62 -49t69.5 -18q21 0 44 5.5t43 19.5v-121q0 -4 -9 -7
v-18h3q1 0 3.5 -0.5t3.5 -0.5l1 -39h-1q-6 3 -13 3q-17 0 -29 -16.5t-12 -39.5t12 -39t29 -16q3 0 6 0.5t7 1.5v-38q-1 0 -3.5 -0.5t-3.5 -0.5h-6q-29 0 -49 27t-20 66q0 29 11.5 51t30.5 33v19q-15 -3 -30 -4.5t-24 -1.5q-58 0 -109 27.5t-89.5 75t-60.5 111t-22 135.5z
" />
    <glyph glyph-name="eogonek" unicode="&#x119;" 
d="M40 248q0 51 14.5 95.5t39.5 77t59 51.5t72 19t71.5 -19.5t58 -52.5t39 -77.5t14.5 -95.5v-18q0 -7 -1.5 -20t-2.5 -13h-284q4 -21 15 -39t25.5 -30.5t31 -19.5t32.5 -7q7 0 19 1.5t15 5.5h2v-125h3q1 0 3.5 -0.5t3.5 -0.5l1 -39h-1q-6 3 -12 3q-18 0 -30 -16.5
t-12 -39.5t12 -39t30 -16q1 0 4 0.5t8 1.5v-38q-1 0 -3.5 -0.5t-3.5 -0.5h-5q-30 0 -50 27t-20 66q0 28 11.5 50.5t30.5 33.5v28h-7q-39 0 -72.5 19.5t-58 53t-38.5 78.5t-14 96zM224 393q-34 0 -64 -27.5t-40 -72.5h208q-10 45 -40 72.5t-64 27.5z" />
    <glyph glyph-name="Ecaron" unicode="&#x11a;" horiz-adv-x="454" 
d="M40 349q0 72 22 136t60.5 111.5t89.5 75t109 27.5q21 0 42 -4t41 -11h1q1 -2 4 -3t4 -1l1 -122q-21 12 -42.5 19t-44.5 7q-50 0 -95.5 -24t-68.5 -73h153v-106h-181q-1 -9 -1.5 -18t-0.5 -17q0 -48 17.5 -90t45 -73t62 -49t69.5 -18q21 0 44 5.5t43 19.5v-121
q0 -3 -11 -6.5t-26 -6.5t-31 -5t-25 -2q-58 0 -109 27.5t-89.5 75t-60.5 111t-22 135.5zM225 904h51l50 -97l31 97h53l-82 -184l-1 1z" />
    <glyph glyph-name="ecaron" unicode="&#x11b;" 
d="M40 248q0 51 14.5 95.5t39.5 77t59 51.5t72 19t71.5 -19.5t58 -52.5t39 -77.5t14.5 -95.5v-18q0 -7 -1.5 -20t-2.5 -13h-284q4 -21 15 -39t25.5 -30.5t31 -19.5t32.5 -7q7 0 19 1.5t15 5.5h2v-102q-2 -1 -11.5 -2t-14.5 -1h-11q-39 0 -72.5 19.5t-58 53t-38.5 78.5
t-14 96zM224 393q-34 0 -64 -27.5t-40 -72.5h208q-10 45 -40 72.5t-64 27.5zM131 702h52l50 -97l31 97h53l-83 -183z" />
    <glyph glyph-name="Gcircumflex" unicode="&#x11c;" horiz-adv-x="504" 
d="M380 20q-22 -9 -42.5 -14t-43.5 -5q-52 0 -98 27.5t-80.5 75t-55 111.5t-20.5 136q0 28 3 53t8 51v1q24 94 71.5 155.5t119.5 83.5l14 3q9 4 22 4h16q21 0 39 -4t37 -11h1q1 0 4 -1.5t3 -2.5l1 -123q-19 13 -38.5 20t-38.5 7q-36 0 -67 -18.5t-54 -50.5t-36 -75t-13 -92
q0 -48 13 -90.5t36 -74t53.5 -50t65.5 -18.5q10 0 23.5 2.5t25.5 6t20.5 7.5t8.5 8v236h-84v109h170v-487h-84v20zM304 918l121 -181h-70l-51 84l-59 -84h-69z" />
    <glyph glyph-name="gcircumflex" unicode="&#x11d;" 
d="M67 119q-11 26 -19 57t-8 70q0 54 15.5 100t43.5 80v1q24 31 56 48t70 17q58 0 109 -48l1 48h73v-505q-2 -48 -17 -84.5t-39 -60.5t-54.5 -36.5t-63.5 -12.5h-24q-2 0 -5 0.5t-8 1.5l-9 3v102q29 -8 35 -8q24 0 44.5 12t35.5 32.5t23.5 48.5t8.5 60q0 3 -1 4
q-51 -48 -111 -48q-45 0 -85 27t-66 81zM124 181l8 -18q16 -30 40.5 -47t51.5 -17q20 0 39 10t34.5 27.5t25.5 41.5t12 52v17q0 31 -8.5 58t-23.5 47t-35.5 31.5t-43.5 11.5t-43 -11.5t-35 -31.5t-23.5 -47t-8.5 -57q0 -43 10 -67zM227 700l121 -181h-70l-51 84l-59 -84h-69
z" />
    <glyph glyph-name="Gbreve" unicode="&#x11e;" horiz-adv-x="504" 
d="M380 20q-22 -9 -42.5 -14t-43.5 -5q-52 0 -98 27.5t-80.5 75t-55 111.5t-20.5 136q0 28 3 53t8 51v1q24 94 71.5 155.5t119.5 83.5h1q11 0 18.5 3.5t16.5 3.5h16q21 0 39 -4t37 -11h1q1 0 4 -1.5t3 -2.5l1 -123q-19 13 -38.5 20t-38.5 7q-36 0 -67 -18.5t-54 -50.5
t-36 -75t-13 -92q0 -48 13 -90.5t36 -74t53.5 -50t65.5 -18.5q10 0 23.5 2.5t25.5 6t20.5 7.5t8.5 8v236h-84v109h170v-487h-84v20zM251 715q-43 0 -72 40.5t-29 118.5h36q0 -51 18.5 -71.5t46.5 -20.5q29 0 48 19t19 71l36 -1q0 -34 -8 -62.5t-21.5 -49.5t-32.5 -32.5
t-41 -11.5z" />
    <glyph glyph-name="gbreve" unicode="&#x11f;" 
d="M40 246q0 54 15.5 100t43.5 80v1q24 31 56 48t70 17q58 0 109 -48l1 48h73v-505q-2 -48 -17 -84.5t-39 -60.5t-54.5 -36.5t-63.5 -12.5h-24q-2 0 -5 0.5t-8 1.5l-9 3v102q29 -8 35 -8q24 0 44.5 12t35.5 32.5t23.5 48.5t8.5 60q0 3 -1 4q-51 -48 -111 -48
q-31 0 -63.5 15.5t-59 46t-43.5 76.5t-17 107zM124 181l8 -18q16 -30 40.5 -47t51.5 -17q20 0 39 10t34.5 27.5t25.5 41.5t12 52v17q0 31 -8.5 58t-23.5 47t-35.5 31.5t-43.5 11.5t-43 -11.5t-35 -31.5t-23.5 -47t-8.5 -57q0 -43 10 -67zM224 505q-43 1 -72 41t-29 118h35
q0 -51 18.5 -71.5t47.5 -20.5t48 19t19 71l35 -1q0 -34 -7.5 -62.5t-21 -49.5t-32.5 -32.5t-41 -11.5z" />
    <glyph glyph-name="Gdotaccent" unicode="&#x120;" horiz-adv-x="504" 
d="M380 20q-22 -9 -42.5 -14t-43.5 -5q-52 0 -98 27.5t-80.5 75t-55 111.5t-20.5 136q0 28 3 53t8 51v1q24 94 71.5 155.5t119.5 83.5l14 3q9 4 22 4h16q21 0 39 -4t37 -11h1q1 0 4 -1.5t3 -2.5l1 -123q-19 13 -38.5 20t-38.5 7q-36 0 -67 -18.5t-54 -50.5t-36 -75t-13 -92
q0 -48 13 -90.5t36 -74t53.5 -50t65.5 -18.5q10 0 23.5 2.5t25.5 6t20.5 7.5t8.5 8v236h-84v109h170v-487h-84v20zM332 828v-98h-72v98h72z" />
    <glyph glyph-name="gdotaccent" unicode="&#x121;" 
d="M67 119q-11 26 -19 57t-8 70q0 54 15.5 100t43.5 80v1q24 31 56 48t70 17q58 0 109 -48l1 48h73v-505q-2 -48 -17 -84.5t-39 -60.5t-54.5 -36.5t-63.5 -12.5h-24q-2 0 -5 0.5t-8 1.5l-9 3v102q29 -8 35 -8q24 0 44.5 12t35.5 32.5t23.5 48.5t8.5 60q0 3 -1 4
q-51 -48 -111 -48q-45 0 -85 27t-66 81zM124 181l8 -18q16 -30 40.5 -47t51.5 -17q20 0 39 10t34.5 27.5t25.5 41.5t12 52v17q0 31 -8.5 58t-23.5 47t-35.5 31.5t-43.5 11.5t-43 -11.5t-35 -31.5t-23.5 -47t-8.5 -57q0 -43 10 -67zM260 617v-98h-72v98h72z" />
    <glyph glyph-name="uni0122" unicode="&#x122;" horiz-adv-x="504" 
d="M380 20q-22 -9 -42.5 -14t-43.5 -5q-52 0 -98 27.5t-80.5 75t-55 111.5t-20.5 136q0 28 3 53t8 51v1q24 94 71.5 155.5t119.5 83.5h1q11 0 18.5 3.5t16.5 3.5h16q21 0 39 -4t37 -11h1q1 0 4 -1.5t3 -2.5l1 -123q-19 13 -38.5 20t-38.5 7q-36 0 -67 -18.5t-54 -50.5
t-36 -75t-13 -92q0 -48 13 -90.5t36 -74t53.5 -50t65.5 -18.5q10 0 23.5 2.5t25.5 6t20.5 7.5t8.5 8v236h-84v109h170v-487h-84v20zM382 -34l-2 -103q-1 -45 -17.5 -67.5t-41.5 -22.5h-9q-2 0 -3 1v35q6 -3 12 -3q15 0 25.5 14.5t10.5 43.5v5h-48v97h73z" />
    <glyph glyph-name="uni0123" unicode="&#x123;" 
d="M84 87q-14 22 -29 63.5t-15 95.5t15.5 100t43.5 80v1q24 31 56 48t70 17q58 0 109 -48l1 48h73v-505q-2 -48 -17 -84.5t-39 -60.5t-54.5 -36.5t-63.5 -12.5h-24q-2 0 -5 0.5t-8 1.5l-9 3v102q29 -8 35 -8q24 0 44.5 12t35.5 32.5t23.5 48.5t8.5 60q0 3 -1 4
q-51 -48 -111 -48q-35 0 -68.5 17t-59.5 52zM124 181l8 -18q16 -30 40.5 -47t51.5 -17q20 0 39 10t34.5 27.5t25.5 41.5t12 52v17q0 31 -8.5 58t-23.5 47t-35.5 31.5t-43.5 11.5t-43 -11.5t-35 -31.5t-23.5 -47t-8.5 -57q0 -43 10 -67zM189 515v97q0 48 18 72.5t44 24.5h4
q1 -1 3 -1h5v-35l-9 1q-1 1 -3 1q-15 0 -26 -14.5t-11 -43.5v-5h49v-97h-74z" />
    <glyph glyph-name="Hcircumflex" unicode="&#x124;" horiz-adv-x="498" 
d="M123 699v-208h252v208h83v-698h-83v392h-252v-392h-83v698h83zM252 911l121 -181h-70l-51 84l-59 -84h-69z" />
    <glyph glyph-name="hcircumflex" unicode="&#x125;" 
d="M227 700l121 -181h-70l-51 84l-59 -84h-55v-79q49 48 112 48q34 0 66.5 -18t58.5 -49.5t42 -74.5t16 -92v-254h-73l-2 261q0 30 -10.5 54t-26.5 41t-35 26t-37 9q-24 0 -44 -11.5t-34.5 -31.5t-23 -46.5t-9.5 -57.5v-245h-73v697h73v-157z" />
    <glyph glyph-name="Hbar" unicode="&#x126;" horiz-adv-x="498" 
d="M123 699v-208h252v208h83v-698h-83v392h-252v-392h-83v698h83zM366 635v-65h-231v65h231z" />
    <glyph glyph-name="hbar" unicode="&#x127;" horiz-adv-x="485" 
d="M271 598v-65h-121v-93q49 48 112 48q34 0 66.5 -18t58.5 -49.5t42 -74.5t16 -92v-254h-73l-2 261q0 30 -10.5 54t-26.5 41t-35 26t-37 9q-24 0 -44 -11.5t-34.5 -31.5t-23 -46.5t-9.5 -57.5v-245h-73v534h-37v65h37v98h73v-98h121z" />
    <glyph glyph-name="imacron" unicode="&#x12b;" horiz-adv-x="312" 
d="M192 491v-490h-73v490h73zM272 585v-65h-232v65h232z" />
    <glyph glyph-name="Iogonek" unicode="&#x12e;" horiz-adv-x="164" 
d="M124 696v-696h-12v-25h7q4 0 5 -1v-38q-4 1 -7 1.5t-7 0.5q-17 0 -29 -16t-12 -40q0 -23 12 -39t29 -16q6 0 14 3v-39q-2 0 -4.5 -0.5t-4.5 -0.5h-5q-29 0 -49.5 27t-20.5 66q0 29 12 51.5t30 33.5v32h-41v696h83z" />
    <glyph glyph-name="iogonek" unicode="&#x12f;" horiz-adv-x="163" 
d="M112 1v-26h7q3 0 4 -1v-38q-4 1 -7 1.5t-6 0.5q-18 0 -30 -16t-12 -40q0 -23 12 -39t30 -16q5 0 13 3v-39q-1 0 -4 -0.5t-4 -0.5h-5q-30 0 -50 27t-20 66q0 29 11.5 51.5t30.5 33.5v33h-37v490h73v-490h-6zM117 699v-98h-73v98h73z" />
    <glyph glyph-name="Idotaccent" unicode="&#x130;" horiz-adv-x="163" 
d="M123 696v-696h-83v696h83zM118 827v-98h-73v98h73z" />
    <glyph glyph-name="dotlessi" unicode="&#x131;" horiz-adv-x="153" 
d="M113 491v-490h-73v490h73z" />
    <glyph glyph-name="Jcircumflex" unicode="&#x134;" horiz-adv-x="239" 
d="M199 204q-1 -56 -5.5 -94.5t-16.5 -62.5t-35 -35t-62 -11h-19q-5 0 -10 0.5t-11 1.5v109h20q13 0 24.5 2t19 9.5t12 22.5t4.5 42v511h79v-495zM163 900l121 -181h-70l-51 84l-59 -84h-69z" />
    <glyph glyph-name="jcircumflex" unicode="&#x135;" horiz-adv-x="152" 
d="M-95 -206q-2 0 -7 1.5t-5 2.5v98q10 0 21 -2.5t22 -2.5q19 0 37.5 6.5t33 20t23.5 33.5t9 46l1 494h72v-500q0 -45 -13.5 -82t-35.5 -62.5t-51 -39.5t-60 -14h-10q-8 0 -9 1h-28zM81 702l121 -181h-70l-51 84l-59 -84h-69z" />
    <glyph glyph-name="uni0136" unicode="&#x136;" horiz-adv-x="476" 
d="M126 702v-207l205 203l50 -90l-177 -173l232 -359l-63 -76l-247 390v-390h-86v702h86zM262 0v-97q0 -48 -17.5 -72.5t-43.5 -24.5h-4q-1 1 -5 1h-3v35q5 -1 8 -1.5t4 -0.5q15 0 25.5 14.5t10.5 43.5v5h-48v97h73z" />
    <glyph glyph-name="uni0137" unicode="&#x137;" horiz-adv-x="370" 
d="M114 700v-424l162 218l51 -68l-129 -178l132 -178l-51 -68l-133 176l-32 -43v-136h-74v701h74zM214 0v-97q0 -48 -18 -72.5t-43 -24.5h-5q-1 1 -4 1h-3v35q5 -1 8 -1.5t4 -0.5q15 0 25.5 14.5t10.5 43.5v5h-48v97h73z" />
    <glyph glyph-name="Lacute" unicode="&#x139;" horiz-adv-x="238" 
d="M123 699v-595h75v-104h-158v699h83zM163 912l32 -52l-120 -132l-33 52z" />
    <glyph glyph-name="lacute" unicode="&#x13a;" horiz-adv-x="233" 
d="M155 704v-704h-73v704h73zM161 901l32 -53l-121 -131l-32 52z" />
    <glyph glyph-name="uni013B" unicode="&#x13b;" horiz-adv-x="238" 
d="M123 699v-595h75v-104h-158v699h83zM157 -25v-97q0 -48 -17.5 -72.5t-43.5 -24.5h-4q-1 1 -5 1h-3v35l6 -2q1 -1 6 -1q15 0 25.5 15t10.5 44v5h-48v97h73z" />
    <glyph glyph-name="uni013C" unicode="&#x13c;" horiz-adv-x="153" 
d="M113 704v-704h-73v704h73zM113 -34v-96q0 -48 -17.5 -72.5t-43.5 -24.5h-9q-2 0 -2 1l-1 35h1q4 -3 11 -3q15 0 25.5 14.5t10.5 43.5v5h-48v97h73z" />
    <glyph glyph-name="Lcaron" unicode="&#x13d;" horiz-adv-x="305" 
d="M190 699v-595h75v-104h-158v699h83zM40 898h51l51 -97l31 97h53l-83 -183z" />
    <glyph glyph-name="lcaron" unicode="&#x13e;" horiz-adv-x="278" 
d="M113 704v-704h-73v704h73zM238 703v-96q0 -48 -18 -72.5t-43 -24.5h-9q-2 0 -3 1v35l6 -2q1 -1 6 -1q15 0 25.5 14.5t10.5 43.5v5h-48v97h73z" />
    <glyph glyph-name="Lslash" unicode="&#x141;" horiz-adv-x="307" 
d="M192 699v-234l21 26l50 -75l-71 -88v-224h75v-104h-159v228l-16 -20l-52 75l68 82v334h84z" />
    <glyph glyph-name="lslash" unicode="&#x142;" horiz-adv-x="303" 
d="M192 699v-234l21 26l50 -75l-71 -88v-328h-84v228l-16 -20l-52 75l68 82v334h84z" />
    <glyph glyph-name="Nacute" unicode="&#x143;" horiz-adv-x="499" 
d="M40 697h86l249 -498v500h84v-698h-81l-2 2q-1 3 -5 11t-12 24.5t-22 44t-35 69.5l-177 353v-504h-85v696zM255 887l31 -53l-120 -131l-32 52z" />
    <glyph glyph-name="nacute" unicode="&#x144;" horiz-adv-x="449" 
d="M193 389v-2q-15 -6 -29 -19t-25.5 -31t-18 -39.5t-6.5 -44.5v-255h-74v491h74v-45q53 47 111 47q39 0 72.5 -19.5t58.5 -53.5t39 -79.5t14 -97.5v-243h-73l-1 255q-1 30 -10.5 55.5t-24.5 44t-34.5 29.5t-40.5 11q-25 0 -32 -4zM210 691l32 -53l-120 -131l-32 52z" />
    <glyph glyph-name="uni0145" unicode="&#x145;" horiz-adv-x="499" 
d="M40 697h86l249 -498v500h84v-698h-81l-2 2q-1 3 -5 11t-12 24.5t-22 44t-35 69.5l-177 353v-504h-85v696zM289 0v-97q0 -48 -17.5 -72.5t-43.5 -24.5h-4q-1 1 -4 1h-4v35l8 -1q1 -1 4 -1q15 0 26 14.5t11 43.5v5h-49v97h73z" />
    <glyph glyph-name="uni0146" unicode="&#x146;" horiz-adv-x="449" 
d="M193 389v-2q-15 -6 -29 -19t-25.5 -31t-18 -39.5t-6.5 -44.5v-255h-74v491h74v-45q53 47 111 47q39 0 72.5 -19.5t58.5 -53.5t39 -79.5t14 -97.5v-243h-73l-1 255q-1 30 -10.5 55.5t-24.5 44t-34.5 29.5t-40.5 11q-25 0 -32 -4zM258 0v-97q0 -48 -18 -72.5t-43 -24.5h-5
q0 1 -3 1h-4v35l8 -1q1 -1 4 -1q15 0 26 14.5t11 43.5v5h-49v97h73z" />
    <glyph glyph-name="Ncaron" unicode="&#x147;" horiz-adv-x="499" 
d="M40 697h86l249 -498v500h84v-698h-81l-2 2q-1 3 -5 11t-12 24.5t-22 44t-35 69.5l-177 353v-504h-85v696zM153 881h51l51 -96l31 96h53l-83 -183l-1 1z" />
    <glyph glyph-name="ncaron" unicode="&#x148;" horiz-adv-x="449" 
d="M193 389v-2q-15 -6 -29 -19t-25.5 -31t-18 -39.5t-6.5 -44.5v-255h-74v491h74v-45q53 47 111 47q39 0 72.5 -19.5t58.5 -53.5t39 -79.5t14 -97.5v-243h-73l-1 255q-1 30 -10.5 55.5t-24.5 44t-34.5 29.5t-40.5 11q-25 0 -32 -4zM117 696h51l51 -96l31 96h53l-83 -183
l-1 1z" />
    <glyph glyph-name="Omacron" unicode="&#x14c;" horiz-adv-x="604" 
d="M40 349q0 73 20.5 137t56.5 111t84 74t102 27t101.5 -27.5t83 -75t56 -111t20.5 -135.5t-21 -135.5t-56.5 -110.5t-83 -74.5t-101.5 -27.5t-101.5 27.5t-83.5 74.5t-56.5 110.5t-20.5 135.5zM127 349q0 -48 14 -90.5t37.5 -73.5t55.5 -49t68 -18q37 0 69 18t55.5 49.5
t37 74t13.5 91.5q0 48 -14 90t-37.5 73.5t-55.5 49.5t-68 18t-68 -18.5t-55.5 -50t-37.5 -74t-14 -90.5zM417 795v-65h-231v65h231z" />
    <glyph glyph-name="omacron" unicode="&#x14d;" horiz-adv-x="452" 
d="M40 248q0 51 14.5 96t40 79t59 53.5t71.5 19.5q39 0 73 -19.5t59.5 -53.5t40 -79.5t14.5 -96.5t-14.5 -96t-40 -78.5t-59.5 -53t-73 -19.5q-38 0 -71.5 19.5t-59 53.5t-40 79t-14.5 96zM116 248q0 -31 8.5 -57.5t23.5 -46.5t35 -31.5t43 -11.5t43 11.5t35 31.5t23.5 46.5
t8.5 57.5q0 30 -8.5 57t-23.5 47t-35 31.5t-43 11.5t-43 -11.5t-35 -31.5t-23.5 -46.5t-8.5 -57.5zM342 585v-65h-232v65h232z" />
    <glyph glyph-name="Ohungarumlaut" unicode="&#x150;" horiz-adv-x="604" 
d="M40 349q0 73 20.5 137t56.5 111t84 74t102 27t101.5 -27.5t83 -75t56 -111t20.5 -135.5t-21 -135.5t-56.5 -110.5t-83 -74.5t-101.5 -27.5t-101.5 27.5t-83.5 74.5t-56.5 110.5t-20.5 135.5zM127 349q0 -48 14 -90.5t37.5 -73.5t55.5 -49t68 -18q37 0 69 18t55.5 49.5
t37 74t13.5 91.5q0 48 -14 90t-37.5 73.5t-55.5 49.5t-68 18t-68 -18.5t-55.5 -50t-37.5 -74t-14 -90.5zM298 898l32 -52l-120 -132l-33 52zM415 898l32 -52l-120 -132l-33 52z" />
    <glyph glyph-name="ohungarumlaut" unicode="&#x151;" horiz-adv-x="452" 
d="M40 248q0 51 14.5 96t40 79t59 53.5t71.5 19.5q39 0 73 -19.5t59.5 -53.5t40 -79.5t14.5 -96.5t-14.5 -96t-40 -78.5t-59.5 -53t-73 -19.5q-38 0 -71.5 19.5t-59 53.5t-40 79t-14.5 96zM116 248q0 -31 8.5 -57.5t23.5 -46.5t35 -31.5t43 -11.5t43 11.5t35 31.5t23.5 46.5
t8.5 57.5q0 30 -8.5 57t-23.5 47t-35 31.5t-43 11.5t-43 -11.5t-35 -31.5t-23.5 -46.5t-8.5 -57.5zM211 702l32 -52l-120 -132l-33 52zM329 702l32 -52l-121 -132l-32 52z" />
    <glyph glyph-name="OE" unicode="&#x152;" horiz-adv-x="891" 
d="M40 349q0 73 20.5 137t56.5 111t84 74t102 27q70 0 126.5 -43.5t91.5 -115.5q38 73 100 117.5t137 44.5q32 0 83 -14h1q1 -2 4 -3t4 -1l1 -122q-20 12 -42 19t-44 7q-52 0 -96.5 -24.5t-68.5 -72.5h153v-106h-180q-3 -18 -3 -35q0 -48 17.5 -90t45 -73t62 -49t69.5 -18
q22 0 44.5 5t42.5 19v-120q0 -3 -11 -6.5t-26 -6.5t-30.5 -5t-25.5 -2q-75 0 -136 43.5t-100 115.5q-36 -73 -93 -117t-127 -44q-54 0 -101.5 27.5t-83.5 74.5t-56.5 110.5t-20.5 135.5zM127 349q0 -48 14 -90.5t37.5 -73.5t55.5 -49t68 -18q37 0 69 18t55.5 49.5t37 74
t13.5 91.5q0 48 -14 90t-37.5 73.5t-55.5 49.5t-68 18t-68 -18.5t-55.5 -50t-37.5 -74t-14 -90.5z" />
    <glyph glyph-name="oe" unicode="&#x153;" horiz-adv-x="744" 
d="M40 248q0 51 14.5 96t40 79t59 53.5t71.5 19.5q46 0 84.5 -27.5t65.5 -72.5q25 45 62.5 70t82.5 25q38 0 71.5 -19.5t58.5 -52.5t39.5 -77.5t14.5 -95.5v-18q0 -7 -1.5 -20t-2.5 -13h-283q3 -21 13.5 -39t25.5 -30.5t32 -19.5t32 -7q8 0 19.5 1.5t14.5 5.5h2v-102
q-2 -1 -12 -2t-13 -1q-103 0 -158 96q-25 -45 -64 -71t-84 -26q-38 0 -71.5 19.5t-59 53.5t-40 79t-14.5 96zM116 248q0 -31 8.5 -57.5t23.5 -46.5t35 -31.5t43 -11.5t43 11.5t35 31.5t23.5 46.5t8.5 57.5q0 30 -8.5 57t-23.5 47t-35 31.5t-43 11.5t-43 -11.5t-35 -31.5
t-23.5 -46.5t-8.5 -57.5zM520 393q-34 0 -63.5 -27.5t-40.5 -72.5h208q-9 45 -39 72.5t-65 27.5z" />
    <glyph glyph-name="Racute" unicode="&#x154;" 
d="M120 699v-9h2q14 4 28 6.5t29 2.5q47 0 88.5 -23.5t73 -63.5t49.5 -93.5t18 -114.5q0 -57 -16.5 -108.5t-45.5 -93.5l61 -201h-98l-39 128l-4 3q-44 -23 -89 -23q-14 0 -28 2.5t-27 6.5h-2v-117h-80v698h80zM120 220q0 -2 6.5 -4t15.5 -4t17.5 -3t13.5 -1q31 0 58.5 15
t48 41t32.5 62t12 78t-12 78.5t-32.5 62.5t-48 41t-58.5 15q-14 0 -29 -3.5t-24 -8.5v-369zM212 898l32 -52l-121 -132l-32 52z" />
    <glyph glyph-name="racute" unicode="&#x155;" horiz-adv-x="301" 
d="M114 489v-45q51 48 111 48q1 0 6.5 -1t12.5 -2l17 -3v-100q-9 2 -18 4.5t-19 2.5q-21 0 -40.5 -11t-35 -29.5t-25 -44t-9.5 -54.5v-255h-74v490h74zM205 685l32 -52l-120 -132l-33 53z" />
    <glyph glyph-name="uni0156" unicode="&#x156;" 
d="M120 699v-9h2q14 4 28 6.5t29 2.5q47 0 88.5 -23.5t73 -63.5t49.5 -93.5t18 -114.5q0 -57 -16.5 -108.5t-45.5 -93.5l61 -201h-98l-39 128l-4 3q-44 -23 -89 -23q-14 0 -28 2.5t-27 6.5h-2v-117h-80v698h80zM120 220q0 -2 6.5 -4t15.5 -4t17.5 -3t13.5 -1q31 0 58.5 15
t48 41t32.5 62t12 78t-12 78.5t-32.5 62.5t-48 41t-58.5 15q-14 0 -29 -3.5t-24 -8.5v-369zM256 3v-97q0 -48 -18 -72.5t-43 -24.5h-5q-1 1 -4 1h-3v35l6 -2q1 -1 6 -1q15 0 25.5 15t10.5 44v4h-48v98h73z" />
    <glyph glyph-name="uni0157" unicode="&#x157;" horiz-adv-x="301" 
d="M114 489v-45q51 48 111 48q1 0 6.5 -1t12.5 -2l17 -3v-100q-9 2 -18 4.5t-19 2.5q-21 0 -40.5 -11t-35 -29.5t-25 -44t-9.5 -54.5v-255h-74v490h74zM113 -28v-97q0 -48 -17.5 -72.5t-43.5 -24.5h-4q-1 0 -2 0.5t-2 0.5h-4l1 35q3 -1 5 -1.5t6 -0.5q15 0 25.5 14.5
t10.5 43.5v5h-48v97h73z" />
    <glyph glyph-name="Rcaron" unicode="&#x158;" 
d="M120 699v-9h2q14 4 28 6.5t29 2.5q47 0 88.5 -23.5t73 -63.5t49.5 -93.5t18 -114.5q0 -57 -16.5 -108.5t-45.5 -93.5l61 -201h-98l-39 128l-4 3q-44 -23 -89 -23q-14 0 -28 2.5t-27 6.5h-2v-117h-80v698h80zM120 220q0 -2 6.5 -4t15.5 -4t17.5 -3t13.5 -1q31 0 58.5 15
t48 41t32.5 62t12 78t-12 78.5t-32.5 62.5t-48 41t-58.5 15q-14 0 -29 -3.5t-24 -8.5v-369zM68 906h52l50 -96l31 96h53l-83 -183v1z" />
    <glyph glyph-name="rcaron" unicode="&#x159;" horiz-adv-x="305" 
d="M118 489v-45q51 48 111 48q1 0 6.5 -1t12.5 -2l17 -3v-100q-9 2 -18 4.5t-19 2.5q-21 0 -40.5 -11t-35 -29.5t-25 -44t-9.5 -54.5v-255h-74v490h74zM40 694h52l50 -97l32 97h52l-82 -184l-1 1z" />
    <glyph glyph-name="Sacute" unicode="&#x15a;" horiz-adv-x="491" 
d="M151 130q39 -33 81 -33q45 0 82 31.5t54 86.5q1 5 2 11t2 19t2.5 35.5t3.5 60.5q0 11 -0.5 24.5t-0.5 29.5h-337l1 35q1 56 20.5 105t50 85.5t69.5 57.5t80 21q18 0 34 -3t33 -11l6 -3l-1 -101q-17 10 -33 15t-35 5q-36 0 -67.5 -23t-50.5 -62q-4 -3 -7 -11.5t-3 -10.5
l313 -1q0 -28 0.5 -52t0.5 -45q0 -64 -2 -102t-4.5 -59.5t-5 -32t-4.5 -19.5q-12 -41 -32.5 -75t-47 -58t-57.5 -37t-64 -13q-28 0 -76 17l-8 5zM255 884l31 -52l-120 -132l-32 52z" />
    <glyph glyph-name="sacute" unicode="&#x15b;" horiz-adv-x="378" 
d="M116 106q10 -4 18.5 -6t18.5 -2q32 0 57 20.5t40 57.5l7 21h-213q-2 14 -3 27.5t-1 27.5q0 49 15 93t40.5 76.5t59 51.5t70.5 19q9 0 18 -1t18 -4l-1 -101q-10 3 -18 5t-17 2q-28 0 -52.5 -16.5t-39.5 -47.5l-12 -33h213l4 -52q0 -51 -14.5 -95.5t-39.5 -78t-58.5 -52.5
t-72.5 -19h-15q-1 0 -7 1.5t-11 1.5l-4 2v102zM206 677l32 -53l-120 -131l-33 52z" />
    <glyph glyph-name="Scircumflex" unicode="&#x15c;" horiz-adv-x="491" 
d="M150 130q40 -33 82 -33q45 0 82 31.5t54 86.5q1 5 2 11t2 19t2.5 35.5t3.5 60.5q0 11 -0.5 24.5t-0.5 29.5h-337l1 35q1 56 20.5 105t50 85.5t69.5 57.5t80 21q18 0 34 -3t33 -11l6 -3l-1 -101q-17 10 -33 15t-35 5q-36 0 -67.5 -23t-50.5 -62q-4 -3 -7 -11.5t-3 -10.5
l313 -1q0 -28 0.5 -52t0.5 -45q0 -64 -2 -102t-4.5 -59.5t-5 -32t-4.5 -19.5q-12 -41 -32.5 -75t-47 -58t-57.5 -37t-64 -13q-28 0 -76 17l-8 5v108zM249 911l121 -181h-70l-51 84l-59 -84h-69z" />
    <glyph glyph-name="scircumflex" unicode="&#x15d;" horiz-adv-x="378" 
d="M116 106q10 -4 18.5 -6t18.5 -2q32 0 57 20.5t40 57.5l7 21h-213q-2 14 -3 27.5t-1 27.5q0 49 15 93t40.5 76.5t59 51.5t70.5 19q9 0 18 -1t18 -4l-1 -101q-10 3 -18 5t-17 2q-28 0 -52.5 -16.5t-39.5 -47.5l-12 -33h213l4 -52q0 -51 -14.5 -95.5t-39.5 -78t-58.5 -52.5
t-72.5 -19h-15q-1 0 -7 1.5t-11 1.5l-4 2v102zM192 700l121 -181h-70l-51 84l-59 -84h-69z" />
    <glyph glyph-name="Scedilla" unicode="&#x15e;" horiz-adv-x="491" 
d="M150 130q40 -33 82 -33q45 0 82 31.5t54 86.5q1 5 2 11t2 19t2.5 35.5t3.5 60.5q0 11 -0.5 24.5t-0.5 29.5h-337l1 35q1 56 20.5 105t50 85.5t69.5 57.5t80 21q18 0 34 -3t33 -11l6 -3l-1 -101q-17 10 -33 15t-35 5q-36 0 -67.5 -23t-50.5 -62q-4 -3 -7 -11.5t-3 -10.5
l313 -1q0 -28 0.5 -52t0.5 -45q0 -65 -1.5 -104t-4 -60.5t-5.5 -31.5t-5 -17q-12 -39 -32 -72t-44.5 -57t-53.5 -38t-59 -16v-32q18 -11 30 -33.5t12 -51.5q0 -39 -20.5 -66t-49.5 -27h-5q-2 0 -4.5 0.5t-4.5 0.5v39q7 -3 14 -3q17 0 29 16t12 39q0 24 -12 40t-29 16
q-4 0 -7 -0.5t-7 -1.5v38q1 1 4 1h8v26q-39 3 -58 16l-8 5v108z" />
    <glyph glyph-name="scedilla" unicode="&#x15f;" horiz-adv-x="378" 
d="M189 1v-33q18 -11 30 -33.5t12 -51.5q0 -39 -20.5 -66t-49.5 -27h-5q-2 0 -4.5 0.5t-4.5 0.5v39q7 -3 14 -3q17 0 29 16t12 39q0 24 -12 40t-29 16q-4 0 -7 -0.5t-7 -1.5v38q1 1 4 1h8v25q-2 0 -3.5 -0.5t-2.5 -0.5h-15q-1 0 -7 1.5t-11 1.5l-4 2v102q10 -4 18.5 -6
t18.5 -2q32 0 57 20.5t40 57.5l7 21h-213q-2 14 -3 27.5t-1 27.5q0 49 15 93t40.5 76.5t59 51.5t70.5 19q9 0 18 -1t18 -4l-1 -101q-10 3 -18 5t-17 2q-28 0 -52.5 -16.5t-39.5 -47.5l-12 -33h213l4 -52q0 -47 -12.5 -88.5t-34 -74t-51 -53.5t-63.5 -27h12z" />
    <glyph glyph-name="Scaron" unicode="&#x160;" horiz-adv-x="491" 
d="M151 130q39 -33 81 -33q45 0 82 31.5t54 86.5q1 5 2 11t2 19t2.5 35.5t3.5 60.5q0 11 -0.5 24.5t-0.5 29.5h-337l1 35q1 56 20.5 105t50 85.5t69.5 57.5t80 21q18 0 34 -3t33 -11l6 -3l-1 -101q-17 10 -33 15t-35 5q-36 0 -67.5 -23t-50.5 -62q-4 -3 -7 -11.5t-3 -10.5
l313 -1q0 -28 0.5 -52t0.5 -45q0 -64 -2 -102t-4.5 -59.5t-5 -32t-4.5 -19.5q-12 -41 -32.5 -75t-47 -58t-57.5 -37t-64 -13q-28 0 -76 17l-8 5zM153 912h51l51 -97l31 97h53l-84 -183z" />
    <glyph glyph-name="scaron" unicode="&#x161;" horiz-adv-x="378" 
d="M116 106q10 -4 18.5 -6t18.5 -2q32 0 57 20.5t40 57.5l7 21h-213q-2 14 -3 27.5t-1 27.5q0 49 15 93t40.5 76.5t59 51.5t70.5 19q9 0 18 -1t18 -4l-1 -101q-10 3 -18 5t-17 2q-28 0 -52.5 -16.5t-39.5 -47.5l-12 -33h213l4 -52q0 -51 -14.5 -95.5t-39.5 -78t-58.5 -52.5
t-72.5 -19h-15q-1 0 -7 1.5t-11 1.5l-4 2v102zM96 702h20l82 -97l31 97h53l-84 -183z" />
    <glyph glyph-name="Tcommaaccent" unicode="&#x162;" horiz-adv-x="310" 
d="M270 700v-109h-72v-591h-81v594h-77v106h230zM193 -19v-97q0 -48 -17.5 -72.5t-43.5 -24.5h-9q-2 0 -2 1l-1 35h1q3 -1 5 -2t6 -1q15 0 25.5 14.5t10.5 43.5v5h-48v98h73z" />
    <glyph glyph-name="tcommaaccent" unicode="&#x163;" horiz-adv-x="301" 
d="M40 206v490h73v-206h111v-98h-111l1 -187q3 -30 13.5 -52.5t25.5 -37.5t33 -22.5t37 -7.5q11 0 18.5 1.5t17.5 5.5h2v-88l-2 -1q0 -2 -9 -3t-19 -1h-9q-35 0 -66 14t-55.5 40t-40 63t-18.5 83zM189 -10v-97q0 -48 -17.5 -72.5t-43.5 -24.5h-9q-2 0 -2 1l-1 35h1
q3 -1 5 -2t6 -1q15 0 25.5 14.5t10.5 43.5v5h-48v98h73z" />
    <glyph glyph-name="Tcaron" unicode="&#x164;" horiz-adv-x="310" 
d="M270 700v-109h-72v-591h-81v594h-77v106h230zM60 892h51l51 -96l31 96h53l-83 -183l-1 1z" />
    <glyph glyph-name="tcaron" unicode="&#x165;" horiz-adv-x="426" 
d="M40 206v490h73v-206h111v-98h-111l1 -187q3 -30 13.5 -52.5t25.5 -37.5t33 -22.5t37 -7.5q11 0 18.5 1.5t17.5 5.5h2v-88l-2 -1q0 -2 -9 -3t-19 -1h-9q-35 0 -66 14t-55.5 40t-40 63t-18.5 83zM386 703v-96q0 -48 -17.5 -72.5t-43.5 -24.5h-9q-2 0 -2 1l-1 35h1
q3 -1 5 -2t6 -1q15 0 25.5 14.5t10.5 43.5v5h-48v97h73z" />
    <glyph glyph-name="Umacron" unicode="&#x16a;" horiz-adv-x="494" 
d="M40 217v484h83v-471q7 -29 17 -54t24.5 -43t34.5 -28t48 -10q21 0 43 10t40 28t29.5 42t11.5 52l1 469h82v-464q0 -49 -17.5 -92t-46.5 -75t-66.5 -50.5t-76.5 -18.5q-40 0 -75 16.5t-62.5 45.5t-45.5 70t-24 89zM363 795v-65h-232v65h232z" />
    <glyph glyph-name="umacron" unicode="&#x16b;" horiz-adv-x="449" 
d="M256 99v2q14 6 28.5 19t26 31t18.5 39.5t7 45.5v255h73v-491h-73l-1 45q-53 -47 -111 -47q-39 0 -72.5 19.5t-58 53.5t-39 79.5t-14.5 96.5v244h73l1 -256q1 -30 10.5 -55t25 -44t35 -29.5t40.5 -10.5q16 0 31 3zM340 585v-65h-232v65h232z" />
    <glyph glyph-name="Ubreve" unicode="&#x16c;" horiz-adv-x="494" 
d="M40 217v484h83v-471q7 -29 17 -54t24.5 -43t34.5 -28t48 -10q21 0 43 10t40 28t29.5 42t11.5 52l1 469h82v-464q0 -49 -17.5 -92t-46.5 -75t-66.5 -50.5t-76.5 -18.5q-40 0 -75 16.5t-62.5 45.5t-45.5 70t-24 89zM246 716q-43 1 -72 41t-29 118h36q0 -51 18 -71.5
t47 -20.5t48 19t19 71l36 -1q0 -34 -8 -62.5t-21.5 -49.5t-32.5 -32.5t-41 -11.5z" />
    <glyph glyph-name="ubreve" unicode="&#x16d;" horiz-adv-x="449" 
d="M256 99v2q14 6 28.5 19t26 31t18.5 39.5t7 45.5v255h73v-491h-73l-1 45q-53 -47 -111 -47q-39 0 -72.5 19.5t-58 53.5t-39 79.5t-14.5 96.5v244h73l1 -256q1 -30 10.5 -55t25 -44t35 -29.5t40.5 -10.5q16 0 31 3zM223 505q-43 1 -72 41t-29 118h36q0 -51 18 -71.5
t47 -20.5t48 19t19 71l36 -1q0 -34 -8 -62.5t-21.5 -49.5t-32.5 -32.5t-41 -11.5z" />
    <glyph glyph-name="Uring" unicode="&#x16e;" horiz-adv-x="494" 
d="M40 217v484h83v-471q7 -29 17 -54t24.5 -43t34.5 -28t48 -10q21 0 43 10t40 28t29.5 42t11.5 52l1 469h82v-464q0 -49 -17.5 -92t-46.5 -75t-66.5 -50.5t-76.5 -18.5q-40 0 -75 16.5t-62.5 45.5t-45.5 70t-24 89zM167 808q0 22 6.5 41.5t17 34.5t25 23.5t31.5 8.5
q16 0 31 -8.5t26 -23.5t17.5 -34.5t6.5 -41.5t-6.5 -41.5t-17.5 -34t-26 -23t-31 -8.5q-17 0 -31.5 8.5t-25 23t-17 34t-6.5 41.5zM199 808q0 -26 14 -44.5t34 -18.5t33.5 18.5t13.5 44.5t-13.5 45t-33.5 19q-19 0 -33.5 -18.5t-14.5 -45.5z" />
    <glyph glyph-name="uring" unicode="&#x16f;" horiz-adv-x="449" 
d="M256 99v2q14 6 28.5 19t26 31t18.5 39.5t7 45.5v255h73v-491h-73l-1 45q-53 -47 -111 -47q-39 0 -72.5 19.5t-58 53.5t-39 79.5t-14.5 96.5v244h73l1 -256q1 -30 10.5 -55t25 -44t35 -29.5t40.5 -10.5q16 0 31 3zM146 598q0 22 6.5 41.5t17 34.5t25 23.5t31.5 8.5
t32 -8.5t26 -23.5t17 -34.5t6 -41.5q0 -45 -23 -76t-58 -31q-17 0 -31.5 8.5t-25 23t-17 34t-6.5 41.5zM179 598q0 -26 14 -44.5t33 -18.5q20 0 34 18.5t14 44.5t-13.5 45t-33.5 19t-34 -18.5t-14 -45.5z" />
    <glyph glyph-name="Uhungarumlaut" unicode="&#x170;" horiz-adv-x="494" 
d="M40 217v484h83v-471q7 -29 17 -54t24.5 -43t34.5 -28t48 -10q21 0 43 10t40 28t29.5 42t11.5 52l1 469h82v-464q0 -49 -17.5 -92t-46.5 -75t-66.5 -50.5t-76.5 -18.5q-40 0 -75 16.5t-62.5 45.5t-45.5 70t-24 89zM249 881l33 -52l-120 -132l-33 53zM367 881l32 -52
l-120 -132l-33 53z" />
    <glyph glyph-name="uhungarumlaut" unicode="&#x171;" horiz-adv-x="449" 
d="M256 99v2q14 6 28.5 19t26 31t18.5 39.5t7 45.5v255h73v-491h-73l-1 45q-53 -47 -111 -47q-39 0 -72.5 19.5t-58 53.5t-39 79.5t-14.5 96.5v244h73l1 -256q1 -30 10.5 -55t25 -44t35 -29.5t40.5 -10.5q16 0 31 3zM237 674l33 -52l-120 -132l-33 52zM355 674l32 -52
l-120 -132l-33 52z" />
    <glyph glyph-name="Uogonek" unicode="&#x172;" horiz-adv-x="494" 
d="M40 217v484h83v-471q7 -29 17 -54t24.5 -43t34.5 -28t48 -10q21 0 43 10t40 28t29.5 42t11.5 52l1 469h82v-464q0 -38 -10.5 -72.5t-29 -63.5t-43 -51t-52.5 -34v-24h3q2 -2 8 -2v-38l-6 2q-1 1 -7 1q-17 0 -29 -16.5t-12 -39.5t12 -39.5t29 -16.5q6 0 7 1l6 2v-38
q-2 0 -4 -1t-4 -1h-5q-29 0 -49.5 27t-20.5 66q0 29 11.5 51.5t30.5 33.5v22l-25 -3q-5 -1 -9 -1.5t-8 -0.5q-40 0 -75 16.5t-62.5 45.5t-45.5 70t-24 89z" />
    <glyph glyph-name="uogonek" unicode="&#x173;" horiz-adv-x="449" 
d="M256 99v2q14 6 28.5 19t26 31t18.5 39.5t7 45.5v255h73v-491h-22v-25h7q3 0 4 -1l1 -38h-1q-4 1 -7 1.5t-6 0.5q-17 0 -29 -16t-12 -40q0 -23 12 -39t29 -16q7 0 13 3v-39q-2 0 -4 -0.5t-4 -0.5h-5q-29 0 -49.5 27t-20.5 66q0 29 12 51.5t30 33.5v32h-21l-1 45
q-53 -47 -111 -47q-39 0 -72.5 19.5t-58 53.5t-39 79.5t-14.5 96.5v244h73l1 -256q1 -30 10.5 -55t25 -44t35 -29.5t40.5 -10.5q16 0 31 3z" />
    <glyph glyph-name="Ydieresis" unicode="&#x178;" horiz-adv-x="499" 
d="M192 219l-27 11l-23 14l-26 21q-44 41 -62 102l-6 21q-5 16 -6.5 31t-1.5 32l2 246h81l2 -267q3 -19 9 -36.5t18 -31.5l19 -23q9 -8 22.5 -16t41.5 -15h30l17 3q13 4 25 11.5t23 16.5l12 14q16 20 25.5 47.5t9.5 53.5l1 243h81v-260q-1 -13 -2.5 -25.5t-4.5 -23.5v-1
q-34 -127 -145 -168l-7 -3v-215h-100v215q0 2 -2.5 2t-5.5 1zM204 807v-78h-59v78h59zM354 807v-78h-57v78h57z" />
    <glyph glyph-name="Zacute" unicode="&#x179;" horiz-adv-x="452" 
d="M40 107l272 486h-271v106h371v-106l-277 -486h277v-108h-372v108zM270 912l33 -52l-120 -132l-33 52z" />
    <glyph glyph-name="zacute" unicode="&#x17a;" horiz-adv-x="452" 
d="M40 97l259 298h-258v98h370v-100l-260 -299h261v-97h-372v100zM270 702l32 -52l-120 -132l-32 52z" />
    <glyph glyph-name="Zdotaccent" unicode="&#x17b;" horiz-adv-x="452" 
d="M40 107l272 486h-271v106h371v-106l-277 -486h277v-108h-372v108zM263 827v-98h-74v98h74z" />
    <glyph glyph-name="zdotaccent" unicode="&#x17c;" horiz-adv-x="452" 
d="M40 97l259 298h-258v98h370v-100l-260 -299h261v-97h-372v100zM262 617v-98h-73v98h73z" />
    <glyph glyph-name="Zcaron" unicode="&#x17d;" horiz-adv-x="452" 
d="M40 107l272 486h-271v106h371v-106l-277 -486h277v-108h-371zM133 912h51l51 -97l32 97h52l-83 -183z" />
    <glyph glyph-name="zcaron" unicode="&#x17e;" horiz-adv-x="452" 
d="M40 97l259 298h-258v98h370v-100l-260 -299h261v-97h-372v100zM133 702h51l51 -97l32 97h52l-83 -183z" />
    <glyph glyph-name="Scommaaccent" unicode="&#x218;" horiz-adv-x="491" 
d="M150 130q40 -33 82 -33q45 0 82 31.5t54 86.5q1 5 2 11t2 19t2.5 35.5t3.5 60.5q0 11 -0.5 24.5t-0.5 29.5h-337l1 35q1 56 20.5 105t50 85.5t69.5 57.5t80 21q18 0 34 -3t33 -11l6 -3l-1 -101q-17 10 -33 15t-35 5q-36 0 -67.5 -23t-50.5 -62q-4 -3 -7 -11.5t-3 -10.5
l313 -1q0 -28 0.5 -52t0.5 -45q0 -64 -2 -102t-4.5 -59.5t-5 -32t-4.5 -19.5q-12 -41 -32.5 -75t-47 -58t-57.5 -37t-64 -13q-28 0 -76 17l-8 5v108zM287 -22v-97q0 -48 -17.5 -72.5t-43.5 -24.5h-9q-2 0 -2 1l-1 35h1q3 -1 5 -2t6 -1q15 0 25.5 14.5t10.5 43.5v5h-48v98h73
z" />
    <glyph glyph-name="scommaaccent" unicode="&#x219;" horiz-adv-x="378" 
d="M116 106q10 -4 18.5 -6t18.5 -2q32 0 57 20.5t40 57.5l7 21h-213q-2 14 -3 27.5t-1 27.5q0 49 15 93t40.5 76.5t59 51.5t70.5 19q9 0 18 -1t18 -4l-1 -101q-10 3 -18 5t-17 2q-28 0 -52.5 -16.5t-39.5 -47.5l-12 -33h213l4 -52q0 -51 -14.5 -95.5t-39.5 -78t-58.5 -52.5
t-72.5 -19h-15q-1 0 -7 1.5t-11 1.5l-4 2v102zM238 -12v-97q0 -48 -17.5 -72.5t-43.5 -24.5h-9q-2 0 -2 1l-1 35h1q3 -1 5 -2t6 -1q15 0 25.5 14.5t10.5 43.5v5h-48v98h73z" />
    <glyph glyph-name="circumflex" unicode="&#x2c6;" horiz-adv-x="329" 
d="M168 700l121 -181h-70l-51 84l-59 -84h-69z" />
    <glyph glyph-name="caron" unicode="&#x2c7;" horiz-adv-x="266" 
d="M40 702h52l50 -97l32 97h52l-83 -183z" />
    <glyph glyph-name="breve" unicode="&#x2d8;" horiz-adv-x="284" 
d="M141 505q-43 1 -72 41t-29 118h36q0 -51 18 -71.5t47 -20.5t48 19t19 71h36q0 -35 -8 -63.5t-21.5 -49.5t-32.5 -32.5t-41 -11.5z" />
    <glyph glyph-name="dotaccent" unicode="&#x2d9;" horiz-adv-x="152" 
d="M112 617v-98h-72v98h72z" />
    <glyph glyph-name="ring" unicode="&#x2da;" horiz-adv-x="241" 
d="M40 626q0 22 6.5 41.5t17.5 34.5t25.5 23.5t30.5 8.5q17 0 32 -8.5t26 -23.5t17 -34.5t6 -41.5q0 -45 -23 -76t-58 -31q-16 0 -30.5 8.5t-25.5 23t-17.5 34t-6.5 41.5zM72 626q0 -26 14 -44.5t34 -18.5q21 0 34.5 18.5t13.5 44.5t-13.5 45t-33.5 19t-34.5 -18.5
t-14.5 -45.5z" />
    <glyph glyph-name="ogonek" unicode="&#x2db;" horiz-adv-x="163" 
d="M112 1v-26h7q4 0 4 -1v-38q-5 1 -8 1.5t-5 0.5q-17 0 -29 -16t-12 -40q0 -23 12 -39t29 -16q7 0 13 3v-39q-1 0 -3.5 -0.5t-4.5 -0.5h-5q-29 0 -49.5 27t-20.5 66q0 29 11.5 51.5t30.5 33.5v33h30z" />
    <glyph glyph-name="tilde" unicode="&#x2dc;" horiz-adv-x="314" 
d="M160 597q37 -36 56 -36q15 0 21.5 18.5t6.5 45.5l30 -8q-1 -45 -16 -74t-40 -29q-11 0 -28.5 11.5t-35.5 25t-33.5 25t-22.5 11.5q-15 0 -21 -19t-7 -45l-30 8q2 42 16.5 72t39.5 30q23 0 64 -36z" />
    <glyph glyph-name="hungarumlaut" unicode="&#x2dd;" horiz-adv-x="350" 
d="M160 702l33 -52l-121 -132l-32 52zM278 702l32 -52l-120 -132l-33 52z" />
    <glyph glyph-name="quoteleft" unicode="&#x2018;" horiz-adv-x="153" 
d="M40 510v96q0 48 17 72.5t44 24.5h8q3 0 3 -1l1 -35h-1q-3 1 -5.5 2t-5.5 1q-15 0 -25.5 -14.5t-10.5 -43.5v-5h48v-97h-73z" />
    <glyph glyph-name="quoteright" unicode="&#x2019;" horiz-adv-x="153" 
d="M113 703v-96q0 -48 -17.5 -72.5t-43.5 -24.5h-9q-2 0 -2 1l-1 35h1q3 -1 5 -2t6 -1q15 0 25.5 14.5t10.5 43.5v5h-48v97h73z" />
    <glyph glyph-name="quotesinglbase" unicode="&#x201a;" horiz-adv-x="153" 
d="M113 99v-97q0 -48 -17.5 -72.5t-43.5 -24.5h-9q-2 0 -2 1l-1 35h1q3 -1 5 -2t6 -1q15 0 25.5 14.5t10.5 43.5v5h-48v98h73z" />
    <glyph glyph-name="quotedblleft" unicode="&#x201c;" horiz-adv-x="286" 
d="M173 509v96q0 48 18 73t43 25h5q1 -1 3.5 -1t3.5 -1v-35q-6 3 -12 3q-15 0 -25.5 -14.5t-10.5 -43.5v-5h48v-97h-73zM40 510v96q0 48 17 72.5t44 24.5h8q3 0 3 -1l1 -35h-1q-3 1 -5.5 2t-5.5 1q-15 0 -25.5 -14.5t-10.5 -43.5v-5h48v-97h-73z" />
    <glyph glyph-name="quotedblright" unicode="&#x201d;" horiz-adv-x="287" 
d="M247 703v-97q0 -48 -18 -72.5t-43 -24.5h-5q-1 1 -4 1h-3v35l6 -2q1 -1 6 -1q15 0 25.5 15t10.5 44v4h-48v98h73zM113 703v-96q0 -48 -17.5 -72.5t-43.5 -24.5h-9q-2 0 -2 1l-1 35h1q3 -1 5 -2t6 -1q15 0 25.5 14.5t10.5 43.5v5h-48v97h73z" />
    <glyph glyph-name="quotedblbase" unicode="&#x201e;" horiz-adv-x="287" 
d="M247 95v-96q0 -48 -18 -73t-43 -25h-5q-1 1 -3.5 1t-3.5 1v35q6 -3 12 -3q15 0 25.5 14.5t10.5 43.5v5h-48v97h73zM113 96v-97q0 -48 -17.5 -72.5t-43.5 -24.5h-4q-1 0 -2 0.5t-2 0.5h-4l1 35q3 -1 5 -1.5t6 -0.5q15 0 25.5 14.5t10.5 43.5v5h-48v97h73z" />
    <glyph glyph-name="dagger" unicode="&#x2020;" horiz-adv-x="312" 
d="M40 441v101h80v162h72v-162h80v-101h-80v-441h-72v441h-80z" />
    <glyph glyph-name="daggerdbl" unicode="&#x2021;" horiz-adv-x="314" 
d="M118 543v161h72v-161h82v-101h-82v-179h84v-101h-84v-162h-72v162h-76v101h76v179h-78v101h78z" />
    <glyph glyph-name="bullet" unicode="&#x2022;" horiz-adv-x="176" 
d="M40 305q0 27 14.5 45.5t34.5 18.5t33.5 -19t13.5 -45t-13.5 -44.5t-34.5 -18.5q-20 0 -34 18.5t-14 44.5z" />
    <glyph glyph-name="ellipsis" unicode="&#x2026;" horiz-adv-x="404" 
d="M113 99v-98h-73v98h73zM364 99v-98h-73v98h73zM239 99v-98h-74v98h74z" />
    <glyph glyph-name="perthousand" unicode="&#x2030;" horiz-adv-x="564" 
d="M141 -1h-51l159 702h49zM206 197q4 35 25 58t48 23q31 0 52 -28t21 -70v-86q0 -20 -6.5 -37.5t-17 -30.5t-24 -20t-26.5 -7q-27 0 -46 21.5t-26 56.5v120zM381 197q4 36 24.5 57.5t46.5 21.5q15 0 28 -7.5t22.5 -20.5t15.5 -30.5t6 -37.5v-85q0 -20 -6.5 -37t-16.5 -29.5
t-23.5 -19.5t-26.5 -7q-26 0 -45 21.5t-25 54.5v119zM40 620q5 35 25 57t46 22q31 0 52 -28t21 -68v-85q0 -20 -6.5 -37t-16.5 -29.5t-23.5 -19.5t-26.5 -7q-27 0 -46 21t-25 55v119zM235 78q6 -17 17.5 -28.5t25.5 -11.5t26.5 11.5t17.5 28.5l-1 117q-4 16 -13.5 29.5
t-24.5 13.5h-12q-1 -1 -2.5 -1t-2.5 -1q-11 -3 -19 -15t-12 -26v-117zM409 79q6 -17 17.5 -27.5t24.5 -10.5q14 0 26 11t17 28v114q-4 15 -13.5 29t-24.5 14h-12q-12 0 -21.5 -14t-13.5 -28v-116zM69 502q6 -17 17 -28t25 -11q13 0 25.5 11.5t17.5 28.5l-1 114
q-3 15 -12.5 29t-24.5 14h-12q-1 -1 -3 -1t-2 -1q-11 -3 -19 -15t-11 -26v-115z" />
    <glyph glyph-name="guilsinglleft" unicode="&#x2039;" horiz-adv-x="275" 
d="M61 252l192 210v-81l-151 -166l151 -136v-78l-189 170h-3l-39 36l1 2z" />
    <glyph glyph-name="guilsinglright" unicode="&#x203a;" horiz-adv-x="275" 
d="M252 209l1 -2l-39 -36h-3l-189 -170v78l151 136l-151 166v81l192 -210z" />
    <glyph glyph-name="fraction" unicode="&#x2044;" horiz-adv-x="285" 
d="M90 6h-50l157 694h48z" />
    <glyph glyph-name="Euro" unicode="&#x20ac;" 
d="M40 351q0 73 22 137t59.5 112t87.5 75.5t106 27.5q52 0 83 -16q1 0 4.5 -1t4.5 -1l1 -124q-21 12 -42 19t-43 7q-35 0 -72.5 -19t-61.5 -54h63v-116h-110l-1 -3q0 -2 -1 -13.5t-1 -16.5v-26q0 -5 1 -17t1 -13h111v-117h-64v-2q27 -35 61 -54t73 -19q22 0 44 5t42 19v-121
q0 -3 -11 -6.5t-26 -6.5t-31 -5t-25 -2q-56 0 -106 27.5t-87.5 75.5t-59.5 112t-22 136z" />
    <glyph glyph-name="trademark" unicode="&#x2122;" horiz-adv-x="291" 
d="M143 563q0 24 10 43h-2q-13 0 -23 -12.5t-10 -30.5v-72h-13q-61 0 -65 61v144h22v-60h54v-14l7 5q10 9 25 9q11 0 25 -8h1q7 7 23 7q20 0 37 -19t17 -47v-78h-21v70q0 18 -9 31.5t-24 13.5q-4 0 -5 -1q10 -19 10 -42v-72h-19v72q0 9 -2.5 14.5t-6.5 14.5q-4 0 -6.5 -12
t-2.5 -18v-71h-21v10q0 8 -0.5 17.5t-0.5 19.5v25zM66 536q4 -11 12 -15.5t16 -4.5v90h-32v-55q1 -7 2 -9.5t2 -5.5z" />
    <glyph glyph-name="notequal" unicode="&#x2260;" horiz-adv-x="314" 
d="M101 32l-39 27l22 61h-42v51h63l43 111h-108v51h128l39 101l38 -28l-29 -73h56v-51h-75l-43 -111h120v-51h-139z" />
    <glyph glyph-name="lessequal" unicode="&#x2264;" horiz-adv-x="489" 
d="M110 252l339 210v-81l-268 -166l268 -136v-83h-234v82h81l-183 93h-3l-70 36l1 2z" />
    <glyph glyph-name="greaterequal" unicode="&#x2265;" horiz-adv-x="488" 
d="M380 252l68 -44l-69 -37h-3l-183 -93h81v-82h-234v83l267 136l-267 166v81z" />
    <glyph glyph-name="fi" unicode="&#xfb01;" horiz-adv-x="333" 
d="M247 697q2 0 5 -1.5t7 -1.5v-99q-9 0 -18 2.5t-18 2.5q-18 0 -35.5 -8t-32 -22t-25 -34t-13.5 -45h176v-491h-73v393h-107v-393h-73v493q0 11 3.5 26.5t9 31.5t11.5 30t11 22q27 45 64 69.5t80 24.5h28z" />
    <glyph glyph-name="fl" unicode="&#xfb02;" horiz-adv-x="361" 
d="M321 697v-697h-77v596q-7 4 -21 4q-18 0 -35.5 -8t-32 -22t-25 -34t-13.5 -45h104v-98h-108v-393h-73v493q0 12 3.5 27t8.5 30.5t11.5 29.5t11.5 23q55 94 144 94h102z" />
    </font>
</defs>
</svg>
